MerriweatherSans-Black.ufo
<glyph name="quotesingle" format="2">
  <advance width="710"/>
  <unicode hex="0027"/>
  <outline>
    <contour>
      <point x="232" y="908" type="line"/>
      <point x="478" y="908" type="line"/>
      <point x="518" y="1664" type="line"/>
      <point x="192" y="1664" type="line"/>
    </contour>
  </outline>
</glyph>
<glyph name="parenleft" format="2">
  <advance width="848"/>
  <unicode hex="0028"/>
  <outline>
    <contour>
      <point x="582" y="-352" type="curve"/>
      <point x="768" y="-224" type="line"/>
      <point x="630" y="-106"/>
      <point x="426" y="188"/>
      <point x="426" y="690" type="curve" smooth="yes"/>
      <point x="426" y="1212"/>
      <point x="672" y="1518"/>
      <point x="768" y="1598" type="curve"/>
      <point x="582" y="1726" type="line"/>
      <point x="462" y="1650"/>
      <point x="120" y="1302"/>
      <point x="120" y="696" type="curve" smooth="yes"/>
      <point x="120" y="20"/>
      <point x="474" y="-280"/>
    </contour>
  </outline>
</glyph>
<glyph name="hyphen" format="2">
  <advance width="1190"/>
  <unicode hex="002D"/>
  <outline>
    <contour>
      <point x="180" y="520" type="line"/>
      <point x="1010" y="520" type="line"/>
      <point x="1010" y="790" type="line"/>
      <point x="180" y="790" type="line"/>
    </contour>
  </outline>
</glyph>
<glyph name="period" format="2">
  <advance width="654"/>
  <unicode hex="002E"/>
  <outline>
    <contour>
      <point x="320" y="-22" type="curve" smooth="yes"/>
      <point x="442" y="-22"/>
      <point x="536" y="84"/>
      <point x="536" y="202" type="curve" smooth="yes"/>
      <point x="536" y="318"/>
      <point x="458" y="406"/>
      <point x="336" y="406" type="curve" smooth="yes"/>
      <point x="212" y="406"/>
      <point x="118" y="302"/>
      <point x="118" y="184" type="curve" smooth="yes"/>
      <point x="118" y="68"/>
      <point x="200" y="-22"/>
    </contour>
  </outline>
</glyph>
<glyph name="zero" format="2">
  <advance width="1412"/>
  <unicode hex="0030"/>
  <outline>
    <contour>
      <point x="696" y="-16" type="curve" smooth="yes" name="hr00"/>
      <point x="1054" y="-16"/>
      <point x="1322" y="284"/>
      <point x="1326" y="750" type="curve" smooth="yes"/>
      <point x="1328" y="1152"/>
      <point x="1156" y="1500"/>
      <point x="720" y="1500" type="curve" smooth="yes"/>
      <point x="368" y="1500"/>
      <point x="92" y="1216"/>
      <point x="86" y="768" type="curve" smooth="yes"/>
      <point x="82" y="360"/>
      <point x="264" y="-16"/>
    </contour>
    <contour>
      <point x="704" y="236" type="curve" smooth="yes"/>
      <point x="548" y="236"/>
      <point x="470" y="452"/>
      <point x="470" y="776" type="curve" smooth="yes"/>
      <point x="470" y="1100"/>
      <point x="556" y="1248"/>
      <point x="708" y="1248" type="curve" smooth="yes"/>
      <point x="864" y="1248"/>
      <point x="942" y="1062"/>
      <point x="942" y="742" type="curve" smooth="yes"/>
      <point x="942" y="386"/>
      <point x="856" y="236"/>
    </contour>
  </outline>
</glyph>
<glyph name="one" format="2">
  <advance width="960"/>
  <unicode hex="0031"/>
  <outline>
    <contour>
      <point x="346" y="0" type="line"/>
      <point x="718" y="0" type="line"/>
      <point x="720" y="1474" type="line"/>
      <point x="540" y="1498" type="line"/>
      <point x="454" y="1428"/>
      <point x="218" y="1320"/>
      <point x="90" y="1290" type="curve"/>
      <point x="120" y="1070" type="line"/>
      <point x="194" y="1082"/>
      <point x="268" y="1094"/>
      <point x="346" y="1112" type="curve"/>
    </contour>
  </outline>
</glyph>
<glyph name="three" format="2">
  <advance width="1172"/>
  <unicode hex="0033"/>
  <outline>
    <contour>
      <point x="122" y="30" type="line"/>
      <point x="192" y="8"/>
      <point x="296" y="-22"/>
      <point x="430" y="-22" type="curve" smooth="yes"/>
      <point x="826" y="-22"/>
      <point x="1088" y="186"/>
      <point x="1088" y="430" type="curve" smooth="yes"/>
      <point x="1088" y="602"/>
      <point x="984" y="770"/>
      <point x="706" y="780" type="curve"/>
      <point x="706" y="746" type="line"/>
      <point x="884" y="826"/>
      <point x="1010" y="954"/>
      <point x="1010" y="1154" type="curve" smooth="yes"/>
      <point x="1010" y="1376"/>
      <point x="838" y="1506"/>
      <point x="540" y="1506" type="curve" smooth="yes"/>
      <point x="342" y="1506"/>
      <point x="122" y="1418"/>
      <point x="66" y="1358" type="curve"/>
      <point x="170" y="1132" type="line"/>
      <point x="238" y="1180"/>
      <point x="332" y="1232"/>
      <point x="464" y="1232" type="curve" smooth="yes"/>
      <point x="574" y="1232"/>
      <point x="646" y="1178"/>
      <point x="640" y="1084" type="curve" smooth="yes"/>
      <point x="636" y="1012"/>
      <point x="600" y="950"/>
      <point x="512" y="900" type="curve" smooth="yes"/>
      <point x="460" y="870"/>
      <point x="378" y="846"/>
      <point x="288" y="830" type="curve"/>
      <point x="336" y="606" type="line"/>
      <point x="468" y="636" type="line"/>
      <point x="642" y="644"/>
      <point x="702" y="550"/>
      <point x="702" y="470" type="curve" smooth="yes"/>
      <point x="702" y="322"/>
      <point x="554" y="236"/>
      <point x="340" y="236" type="curve" smooth="yes"/>
      <point x="274" y="236"/>
      <point x="192" y="250"/>
      <point x="120" y="266" type="curve"/>
    </contour>
  </outline>
</glyph>
<glyph name="five" format="2">
  <advance width="1290"/>
  <unicode hex="0035"/>
  <outline>
    <contour>
      <point x="314" y="-18" type="curve" smooth="yes"/>
      <point x="830" y="-18"/>
      <point x="1152" y="188"/>
      <point x="1152" y="542" type="curve" smooth="yes"/>
      <point x="1152" y="810"/>
      <point x="1000" y="972"/>
      <point x="716" y="972" type="curve" smooth="yes"/>
      <point x="640" y="972"/>
      <point x="554" y="958"/>
      <point x="472" y="932" type="curve"/>
      <point x="502" y="1192" type="line"/>
      <point x="1076" y="1192" type="line"/>
      <point x="1108" y="1486" type="line"/>
      <point x="244" y="1486" type="line"/>
      <point x="182" y="684" type="line"/>
      <point x="246" y="650" type="line"/>
      <point x="334" y="682"/>
      <point x="442" y="714"/>
      <point x="530" y="714" type="curve" smooth="yes"/>
      <point x="706" y="714"/>
      <point x="780" y="650"/>
      <point x="780" y="528" type="curve" smooth="yes"/>
      <point x="780" y="342"/>
      <point x="588" y="254"/>
      <point x="248" y="254" type="curve" smooth="yes"/>
      <point x="222" y="254"/>
      <point x="196" y="254"/>
      <point x="168" y="256" type="curve"/>
      <point x="168" y="-4" type="line"/>
      <point x="210" y="-14"/>
      <point x="280" y="-18"/>
    </contour>
  </outline>
</glyph>
<glyph name="seven" format="2">
  <advance width="1282"/>
  <unicode hex="0037"/>
  <outline>
    <contour>
      <point x="286" y="0" type="curve"/>
      <point x="690" y="0" type="line"/>
      <point x="1192" y="1372" type="line"/>
      <point x="1114" y="1486" type="line"/>
      <point x="120" y="1486" type="line"/>
      <point x="120" y="1152" type="line"/>
      <point x="784" y="1150" type="line"/>
      <point x="706" y="956"/>
      <point x="410" y="260"/>
    </contour>
  </outline>
</glyph>
<glyph name="eight" format="2">
  <advance width="1370"/>
  <unicode hex="0038"/>
  <outline>
    <contour>
      <point x="700" y="-16" type="curve" smooth="yes"/>
      <point x="1024" y="-16"/>
      <point x="1264" y="142"/>
      <point x="1262" y="416" type="curve" smooth="yes"/>
      <point x="1258" y="838"/>
      <point x="498" y="858"/>
      <point x="498" y="1148" type="curve" smooth="yes"/>
      <point x="498" y="1224"/>
      <point x="570" y="1298"/>
      <point x="688" y="1298" type="curve" smooth="yes"/>
      <point x="810" y="1298"/>
      <point x="878" y="1228"/>
      <point x="878" y="1142" type="curve" smooth="yes"/>
      <point x="878" y="1024"/>
      <point x="824" y="932"/>
      <point x="680" y="888" type="curve"/>
      <point x="802" y="748" type="line"/>
      <point x="1086" y="812"/>
      <point x="1196" y="982"/>
      <point x="1196" y="1156" type="curve" smooth="yes"/>
      <point x="1196" y="1360"/>
      <point x="1018" y="1510"/>
      <point x="682" y="1510" type="curve" smooth="yes"/>
      <point x="346" y="1510"/>
      <point x="162" y="1334"/>
      <point x="162" y="1118" type="curve" smooth="yes"/>
      <point x="162" y="614"/>
      <point x="898" y="638"/>
      <point x="898" y="378" type="curve" smooth="yes"/>
      <point x="898" y="282"/>
      <point x="806" y="196"/>
      <point x="696" y="196" type="curve" smooth="yes"/>
      <point x="524" y="196"/>
      <point x="456" y="306"/>
      <point x="456" y="404" type="curve" smooth="yes"/>
      <point x="456" y="530"/>
      <point x="544" y="600"/>
      <point x="666" y="656" type="curve"/>
      <point x="542" y="804" type="line"/>
      <point x="228" y="714"/>
      <point x="116" y="550"/>
      <point x="116" y="388" type="curve" smooth="yes"/>
      <point x="116" y="142"/>
      <point x="334" y="-16"/>
    </contour>
  </outline>
</glyph>
<glyph name="equal" format="2">
  <advance width="1396"/>
  <unicode hex="003D"/>
  <outline>
    <contour>
      <point x="248" y="882" type="line"/>
      <point x="1150" y="882" type="line"/>
      <point x="1150" y="1128" type="line"/>
      <point x="248" y="1128" type="line"/>
    </contour>
    <contour>
      <point x="248" y="386" type="line"/>
      <point x="1150" y="386" type="line"/>
      <point x="1150" y="632" type="line"/>
      <point x="248" y="632" type="line"/>
    </contour>
  </outline>
</glyph>
<glyph name="B" format="2">
  <advance width="1428"/>
  <unicode hex="0042"/>
  <anchor x="714" y="0" name="bottom"/>
  <anchor x="828" y="-166" name="btm"/>
  <anchor x="708" y="1662" name="top"/>
  <outline>
    <contour>
      <point x="168" y="0" type="line"/>
      <point x="356" y="0" type="line"/>
      <point x="438" y="-4"/>
      <point x="600" y="-14"/>
      <point x="738" y="-14" type="curve" smooth="yes"/>
      <point x="1214" y="-14"/>
      <point x="1354" y="178"/>
      <point x="1354" y="450" type="curve" smooth="yes"/>
      <point x="1354" y="638"/>
      <point x="1224" y="764"/>
      <point x="1052" y="786" type="curve"/>
      <point x="1202" y="828"/>
      <point x="1276" y="960"/>
      <point x="1276" y="1118" type="curve" smooth="yes"/>
      <point x="1276" y="1354"/>
      <point x="1118" y="1500"/>
      <point x="704" y="1500" type="curve" smooth="yes"/>
      <point x="552" y="1500"/>
      <point x="452" y="1486"/>
      <point x="350" y="1486" type="curve"/>
      <point x="168" y="1488" type="line"/>
    </contour>
    <contour>
      <point x="538" y="882" type="curve"/>
      <point x="538" y="1238" type="line"/>
      <point x="556" y="1248"/>
      <point x="638" y="1250"/>
      <point x="666" y="1250" type="curve" smooth="yes"/>
      <point x="830" y="1250"/>
      <point x="920" y="1208"/>
      <point x="920" y="1084" type="curve" smooth="yes"/>
      <point x="920" y="928"/>
      <point x="840" y="874"/>
      <point x="682" y="874" type="curve" smooth="yes"/>
      <point x="648" y="874"/>
      <point x="570" y="876"/>
    </contour>
    <contour>
      <point x="538" y="252" type="curve"/>
      <point x="538" y="636" type="line"/>
      <point x="562" y="642"/>
      <point x="660" y="644"/>
      <point x="708" y="644" type="curve" smooth="yes"/>
      <point x="896" y="644"/>
      <point x="974" y="576"/>
      <point x="974" y="448" type="curve" smooth="yes"/>
      <point x="974" y="292"/>
      <point x="890" y="230"/>
      <point x="720" y="230" type="curve" smooth="yes"/>
      <point x="660" y="230"/>
      <point x="564" y="236"/>
    </contour>
  </outline>
</glyph>
<glyph name="G" format="2">
  <advance width="1472"/>
  <unicode hex="0047"/>
  <anchor x="736" y="0" name="bottom"/>
  <anchor x="788" y="-166" name="btm"/>
  <anchor x="822" y="1662" name="top"/>
  <outline>
    <contour>
      <point x="84" y="736" type="curve" smooth="yes"/>
      <point x="84" y="262"/>
      <point x="368" y="-16"/>
      <point x="810" y="-16" type="curve" smooth="yes"/>
      <point x="1148" y="-16"/>
      <point x="1244" y="80"/>
      <point x="1360" y="84" type="curve"/>
      <point x="1360" y="834" type="line"/>
      <point x="808" y="834" type="line"/>
      <point x="808" y="568" type="line"/>
      <point x="1056" y="550" type="line"/>
      <point x="1020" y="594" type="line"/>
      <point x="1020" y="292" type="line"/>
      <point x="972" y="274"/>
      <point x="908" y="262"/>
      <point x="804" y="262" type="curve" smooth="yes"/>
      <point x="582" y="262"/>
      <point x="462" y="474"/>
      <point x="462" y="762" type="curve" smooth="yes"/>
      <point x="462" y="1042"/>
      <point x="610" y="1210"/>
      <point x="868" y="1210" type="curve" smooth="yes"/>
      <point x="1066" y="1210"/>
      <point x="1192" y="1172"/>
      <point x="1270" y="1132" type="curve"/>
      <point x="1280" y="1444" type="line"/>
      <point x="1166" y="1464"/>
      <point x="1070" y="1502"/>
      <point x="852" y="1502" type="curve" smooth="yes"/>
      <point x="422" y="1502"/>
      <point x="84" y="1286"/>
    </contour>
  </outline>
</glyph>
<glyph name="L" format="2">
  <advance width="1088"/>
  <unicode hex="004C"/>
  <anchor x="540" y="0" name="bottom"/>
  <anchor x="582" y="-166" name="btm"/>
  <anchor x="540" y="744" name="center"/>
  <anchor x="348" y="1660" name="top"/>
  <anchor x="1048" y="1486" name="topright"/>
  <outline>
    <contour>
      <point x="160" y="0" type="line"/>
      <point x="1030" y="0" type="line"/>
      <point x="1030" y="300" type="line"/>
      <point x="528" y="300" type="line"/>
      <point x="528" y="1486" type="line"/>
      <point x="160" y="1486" type="line"/>
    </contour>
  </outline>
</glyph>
<glyph name="M" format="2">
  <advance width="1942"/>
  <unicode hex="004D"/>
  <anchor x="974" y="0" name="bottom"/>
  <anchor x="984" y="-166" name="btm"/>
  <anchor x="984" y="1600" name="top"/>
  <outline>
    <contour>
      <point x="68" y="0" type="line"/>
      <point x="412" y="0" type="line"/>
      <point x="470" y="782" type="line"/>
      <point x="496" y="1210" type="line"/>
      <point x="594" y="770" type="line"/>
      <point x="810" y="-8" type="line"/>
      <point x="1140" y="-8" type="line"/>
      <point x="1340" y="770" type="line"/>
      <point x="1432" y="1210" type="line"/>
      <point x="1454" y="782" type="line"/>
      <point x="1516" y="0" type="line"/>
      <point x="1874" y="0" type="line"/>
      <point x="1690" y="1486" type="line"/>
      <point x="1204" y="1486" type="line"/>
      <point x="1044" y="724" type="line"/>
      <point x="990" y="376" type="line"/>
      <point x="922" y="724" type="line"/>
      <point x="742" y="1486" type="line"/>
      <point x="240" y="1486" type="line"/>
    </contour>
  </outline>
</glyph>
<glyph name="N" format="2">
  <advance width="1576"/>
  <unicode hex="004E"/>
  <anchor x="788" y="0" name="bottom"/>
  <anchor x="754" y="-166" name="btm"/>
  <anchor x="794" y="1660" name="top"/>
  <outline>
    <contour>
      <point x="160" y="0" type="line"/>
      <point x="498" y="0" type="line"/>
      <point x="498" y="642" type="line"/>
      <point x="424" y="1252" type="line"/>
      <point x="342" y="1252" type="line"/>
      <point x="560" y="796" type="line"/>
      <point x="1042" y="0" type="line"/>
      <point x="1416" y="0" type="line"/>
      <point x="1416" y="1486" type="line"/>
      <point x="1078" y="1486" type="line"/>
      <point x="1078" y="832" type="line"/>
      <point x="1138" y="270" type="line"/>
      <point x="1206" y="270" type="line"/>
      <point x="1016" y="670" type="line"/>
      <point x="508" y="1486" type="line"/>
      <point x="160" y="1486" type="line"/>
    </contour>
  </outline>
</glyph>
<glyph name="U" format="2">
  <advance width="1506"/>
  <unicode hex="0055"/>
  <anchor x="752" y="0" name="bottom"/>
  <anchor x="748" y="-166" name="btm"/>
  <anchor x="903" y="0" name="ogonek"/>
  <anchor x="752" y="1660" name="top"/>
  <anchor x="1134" y="1486" name="topright"/>
  <outline>
    <contour>
      <point x="760" y="-16" type="curve" smooth="yes"/>
      <point x="1188" y="-16"/>
      <point x="1374" y="220"/>
      <point x="1374" y="618" type="curve" smooth="yes"/>
      <point x="1374" y="1486" type="line"/>
      <point x="1006" y="1486" type="line"/>
      <point x="1006" y="668" type="line" smooth="yes"/>
      <point x="1006" y="364"/>
      <point x="922" y="278"/>
      <point x="754" y="278" type="curve" smooth="yes"/>
      <point x="588" y="278"/>
      <point x="500" y="356"/>
      <point x="502" y="668" type="curve" smooth="yes"/>
      <point x="506" y="1486" type="line"/>
      <point x="136" y="1486" type="line"/>
      <point x="132" y="624" type="line" smooth="yes"/>
      <point x="132" y="240"/>
      <point x="300" y="-16"/>
    </contour>
  </outline>
</glyph>
<glyph name="V" format="2">
  <advance width="1376"/>
  <unicode hex="0056"/>
  <anchor x="688" y="0" name="bottom"/>
  <anchor x="690" y="-166" name="btm"/>
  <anchor x="690" y="1662" name="top"/>
  <outline>
    <contour>
      <point x="528" y="-4" type="line"/>
      <point x="852" y="-4" type="line"/>
      <point x="1388" y="1486" type="line"/>
      <point x="992" y="1486" type="line"/>
      <point x="770" y="736" type="line"/>
      <point x="696" y="446" type="line"/>
      <point x="622" y="736" type="line"/>
      <point x="384" y="1486" type="line"/>
      <point x="-12" y="1486" type="line"/>
    </contour>
  </outline>
</glyph>
<glyph name="X" format="2">
  <advance width="1362"/>
  <unicode hex="0058"/>
  <anchor x="682" y="0" name="bottom"/>
  <anchor x="668" y="-166" name="btm"/>
  <anchor x="668" y="1660" name="top"/>
  <outline>
    <contour>
      <point x="20" y="0" type="line"/>
      <point x="406" y="0" type="line"/>
      <point x="608" y="382" type="line"/>
      <point x="708" y="590" type="line"/>
      <point x="630" y="588" type="line"/>
      <point x="732" y="382" type="line"/>
      <point x="940" y="0" type="line"/>
      <point x="1346" y="0" type="line"/>
      <point x="876" y="780" type="line"/>
      <point x="870" y="686" type="line"/>
      <point x="1332" y="1486" type="line"/>
      <point x="948" y="1486" type="line"/>
      <point x="754" y="1114" type="line"/>
      <point x="666" y="940" type="line"/>
      <point x="730" y="940" type="line"/>
      <point x="638" y="1114" type="line"/>
      <point x="434" y="1488" type="line"/>
      <point x="32" y="1486" type="line"/>
      <point x="486" y="714" type="line"/>
      <point x="492" y="818" type="line"/>
    </contour>
  </outline>
</glyph>
<glyph name="Z" format="2">
  <advance width="1254"/>
  <unicode hex="005A"/>
  <anchor x="618" y="0" name="bottom"/>
  <anchor x="600" y="-166" name="btm"/>
  <anchor x="618" y="744" name="center"/>
  <anchor x="630" y="1660" name="top"/>
  <outline>
    <contour>
      <point x="80" y="0" type="line"/>
      <point x="1182" y="0" type="line"/>
      <point x="1182" y="278" type="line"/>
      <point x="548" y="278" type="line"/>
      <point x="620" y="380" type="line"/>
      <point x="1218" y="1408" type="line"/>
      <point x="1178" y="1486" type="line"/>
      <point x="110" y="1486" type="line"/>
      <point x="110" y="1214" type="line"/>
      <point x="714" y="1214" type="line"/>
      <point x="650" y="1120" type="line"/>
      <point x="40" y="82" type="line"/>
    </contour>
  </outline>
</glyph>
<glyph name="underscore" format="2">
  <advance width="1660"/>
  <unicode hex="005F"/>
  <outline>
    <contour>
      <point x="-36" y="-398" type="line"/>
      <point x="1696" y="-398" type="line"/>
      <point x="1696" y="-228" type="line"/>
      <point x="-36" y="-228" type="line"/>
    </contour>
  </outline>
</glyph>
<glyph name="b" format="2">
  <advance width="1324"/>
  <unicode hex="0062"/>
  <anchor x="658" y="0" name="bottom"/>
  <anchor x="760" y="-166" name="btm"/>
  <anchor x="852" y="1662" name="top"/>
  <outline>
    <contour>
      <point x="140" y="1622" type="line"/>
      <point x="140" y="62" type="line"/>
      <point x="496" y="170" type="line"/>
      <point x="496" y="966" type="line"/>
      <point x="486" y="972" type="line"/>
      <point x="496" y="1220" type="line"/>
      <point x="496" y="1622" type="line"/>
    </contour>
    <contour>
      <point x="654" y="-20" type="curve" smooth="yes"/>
      <point x="1012" y="-20"/>
      <point x="1240" y="220"/>
      <point x="1240" y="598" type="curve" smooth="yes"/>
      <point x="1240" y="958"/>
      <point x="1040" y="1128"/>
      <point x="802" y="1128" type="curve" smooth="yes"/>
      <point x="604" y="1128"/>
      <point x="504" y="1038"/>
      <point x="458" y="988" type="curve"/>
      <point x="496" y="802" type="line"/>
      <point x="530" y="828"/>
      <point x="602" y="860"/>
      <point x="678" y="860" type="curve" smooth="yes"/>
      <point x="788" y="860"/>
      <point x="866" y="796"/>
      <point x="866" y="576" type="curve" smooth="yes"/>
      <point x="866" y="350"/>
      <point x="772" y="222"/>
      <point x="648" y="222" type="curve" smooth="yes"/>
      <point x="570" y="222"/>
      <point x="516" y="232"/>
      <point x="496" y="256" type="curve"/>
      <point x="140" y="62" type="line"/>
      <point x="166" y="40"/>
      <point x="420" y="-20"/>
    </contour>
  </outline>
</glyph>
<glyph name="c" format="2">
  <advance width="1008"/>
  <unicode hex="0063"/>
  <anchor x="496" y="0" name="bottom"/>
  <anchor x="576" y="-166" name="btm"/>
  <anchor x="596" y="1662" name="top"/>
  <outline>
    <contour>
      <point x="68" y="546" type="curve" smooth="yes"/>
      <point x="68" y="224"/>
      <point x="238" y="-16"/>
      <point x="606" y="-16" type="curve" smooth="yes"/>
      <point x="750" y="-16"/>
      <point x="896" y="10"/>
      <point x="958" y="74" type="curve"/>
      <point x="912" y="302" type="line"/>
      <point x="864" y="280"/>
      <point x="778" y="262"/>
      <point x="684" y="262" type="curve" smooth="yes"/>
      <point x="544" y="262"/>
      <point x="430" y="342"/>
      <point x="434" y="572" type="curve" smooth="yes"/>
      <point x="438" y="782"/>
      <point x="566" y="848"/>
      <point x="682" y="848" type="curve" smooth="yes"/>
      <point x="788" y="848"/>
      <point x="856" y="826"/>
      <point x="900" y="802" type="curve"/>
      <point x="940" y="1074" type="line"/>
      <point x="904" y="1100"/>
      <point x="782" y="1128"/>
      <point x="632" y="1128" type="curve" smooth="yes"/>
      <point x="242" y="1128"/>
      <point x="68" y="872"/>
    </contour>
  </outline>
</glyph>
<glyph name="e" format="2">
  <advance width="1192"/>
  <unicode hex="0065"/>
  <anchor x="596" y="0" name="bottom"/>
  <anchor x="636" y="-166" name="btm"/>
  <anchor x="804" y="0" name="ogonek"/>
  <anchor x="638" y="1662" name="top"/>
  <outline>
    <contour>
      <point x="638" y="-16" type="curve" smooth="yes"/>
      <point x="836" y="-16"/>
      <point x="1004" y="44"/>
      <point x="1078" y="104" type="curve"/>
      <point x="1022" y="296" type="line"/>
      <point x="968" y="268"/>
      <point x="830" y="240"/>
      <point x="722" y="240" type="curve" smooth="yes"/>
      <point x="548" y="240"/>
      <point x="446" y="316"/>
      <point x="442" y="510" type="curve" smooth="yes"/>
      <point x="438" y="808"/>
      <point x="508" y="896"/>
      <point x="634" y="896" type="curve" smooth="yes"/>
      <point x="744" y="896"/>
      <point x="784" y="814"/>
      <point x="774" y="652" type="curve"/>
      <point x="290" y="652" type="line"/>
      <point x="270" y="472" type="line"/>
      <point x="1098" y="472" type="line"/>
      <point x="1104" y="520"/>
      <point x="1110" y="596"/>
      <point x="1110" y="676" type="curve" smooth="yes"/>
      <point x="1106" y="1034"/>
      <point x="878" y="1128"/>
      <point x="642" y="1128" type="curve" smooth="yes"/>
      <point x="288" y="1128"/>
      <point x="84" y="886"/>
      <point x="84" y="562" type="curve" smooth="yes"/>
      <point x="84" y="200"/>
      <point x="278" y="-16"/>
    </contour>
  </outline>
</glyph>
<glyph name="f" format="2">
  <advance width="860"/>
  <unicode hex="0066"/>
  <anchor x="430" y="0" name="bottom"/>
  <anchor x="410" y="-166" name="btm"/>
  <anchor x="304" y="2064" name="top"/>
  <outline>
    <contour>
      <point x="216" y="0" type="line"/>
      <point x="580" y="0" type="line"/>
      <point x="580" y="876" type="line"/>
      <point x="822" y="876" type="line"/>
      <point x="822" y="1114" type="line"/>
      <point x="580" y="1114" type="line"/>
      <point x="580" y="1214" type="line" smooth="yes"/>
      <point x="580" y="1344"/>
      <point x="636" y="1398"/>
      <point x="720" y="1398" type="curve" smooth="yes"/>
      <point x="790" y="1398"/>
      <point x="838" y="1386"/>
      <point x="864" y="1374" type="curve"/>
      <point x="864" y="1622" type="line"/>
      <point x="838" y="1628"/>
      <point x="762" y="1644"/>
      <point x="648" y="1644" type="curve" smooth="yes"/>
      <point x="444" y="1644"/>
      <point x="216" y="1548"/>
      <point x="216" y="1228" type="curve" smooth="yes"/>
      <point x="216" y="1114" type="line"/>
      <point x="78" y="1086" type="line"/>
      <point x="78" y="876" type="line"/>
      <point x="216" y="876" type="line"/>
    </contour>
  </outline>
</glyph>
<glyph name="g" format="2">
  <advance width="1320"/>
  <unicode hex="0067"/>
  <anchor x="656" y="-546" name="bottom"/>
  <anchor x="606" y="1660" name="top"/>
  <outline>
    <contour>
      <point x="628" y="-504" type="curve" smooth="yes"/>
      <point x="946" y="-506"/>
      <point x="1250" y="-366"/>
      <point x="1250" y="-70" type="curve" smooth="yes"/>
      <point x="1250" y="88"/>
      <point x="1148" y="228"/>
      <point x="802" y="228" type="curve" smooth="yes"/>
      <point x="600" y="228" type="line" smooth="yes"/>
      <point x="494" y="228"/>
      <point x="458" y="246"/>
      <point x="458" y="300" type="curve" smooth="yes"/>
      <point x="458" y="336"/>
      <point x="478" y="382"/>
      <point x="536" y="404" type="curve"/>
      <point x="342" y="432" type="line"/>
      <point x="182" y="376"/>
      <point x="158" y="274"/>
      <point x="156" y="196" type="curve" smooth="yes"/>
      <point x="154" y="106"/>
      <point x="204" y="68"/>
      <point x="304" y="48" type="curve" smooth="yes"/>
      <point x="340" y="42"/>
      <point x="332" y="38"/>
      <point x="366" y="30" type="curve" smooth="yes"/>
      <point x="396" y="24"/>
      <point x="414" y="10"/>
      <point x="448" y="10" type="curve" smooth="yes"/>
      <point x="690" y="10" type="line" smooth="yes"/>
      <point x="872" y="10"/>
      <point x="902" y="-58"/>
      <point x="902" y="-144" type="curve" smooth="yes"/>
      <point x="902" y="-262"/>
      <point x="794" y="-308"/>
      <point x="648" y="-308" type="curve" smooth="yes"/>
      <point x="460" y="-308"/>
      <point x="418" y="-202"/>
      <point x="418" y="-102" type="curve" smooth="yes"/>
      <point x="418" y="-10"/>
      <point x="474" y="38"/>
      <point x="502" y="60" type="curve"/>
      <point x="308" y="72" type="line"/>
      <point x="154" y="32"/>
      <point x="74" y="-52"/>
      <point x="74" y="-166" type="curve" smooth="yes"/>
      <point x="74" y="-372"/>
      <point x="234" y="-500"/>
    </contour>
    <contour>
      <point x="606" y="374" type="curve" smooth="yes"/>
      <point x="948" y="374"/>
      <point x="1108" y="510"/>
      <point x="1108" y="752" type="curve" smooth="yes"/>
      <point x="1108" y="990"/>
      <point x="920" y="1128"/>
      <point x="606" y="1128" type="curve" smooth="yes"/>
      <point x="298" y="1128"/>
      <point x="112" y="988"/>
      <point x="112" y="746" type="curve" smooth="yes"/>
      <point x="112" y="504"/>
      <point x="308" y="374"/>
    </contour>
    <contour>
      <point x="608" y="562" type="curve" smooth="yes"/>
      <point x="494" y="562"/>
      <point x="458" y="646"/>
      <point x="458" y="750" type="curve" smooth="yes"/>
      <point x="458" y="882"/>
      <point x="508" y="922"/>
      <point x="612" y="922" type="curve" smooth="yes"/>
      <point x="724" y="922"/>
      <point x="780" y="864"/>
      <point x="780" y="748" type="curve" smooth="yes"/>
      <point x="780" y="596"/>
      <point x="710" y="562"/>
    </contour>
    <contour>
      <point x="970" y="864" type="line"/>
      <point x="1296" y="864" type="line"/>
      <point x="1296" y="1114" type="line"/>
      <point x="1152" y="1114" type="line" smooth="yes"/>
      <point x="1038" y="1114"/>
      <point x="958" y="1050"/>
      <point x="934" y="1016" type="curve"/>
    </contour>
  </outline>
</glyph>
<glyph name="n" format="2">
  <advance width="1314"/>
  <unicode hex="006E"/>
  <anchor x="660" y="0" name="bottom"/>
  <anchor x="644" y="-166" name="btm"/>
  <anchor x="674" y="1660" name="top"/>
  <outline>
    <contour>
      <point x="144" y="0" type="line"/>
      <point x="504" y="0" type="line"/>
      <point x="504" y="774" type="line"/>
      <point x="554" y="822"/>
      <point x="630" y="846"/>
      <point x="682" y="846" type="curve" smooth="yes"/>
      <point x="788" y="850"/>
      <point x="824" y="798"/>
      <point x="824" y="636" type="curve" smooth="yes"/>
      <point x="824" y="0" type="line"/>
      <point x="1186" y="0" type="line"/>
      <point x="1186" y="702" type="line" smooth="yes"/>
      <point x="1186" y="1022"/>
      <point x="1072" y="1134"/>
      <point x="846" y="1130" type="curve" smooth="yes"/>
      <point x="696" y="1128"/>
      <point x="552" y="1054"/>
      <point x="482" y="984" type="curve"/>
      <point x="474" y="1114" type="line"/>
      <point x="144" y="1114" type="line"/>
    </contour>
  </outline>
</glyph>
<glyph name="o" format="2">
  <advance width="1250"/>
  <unicode hex="006F"/>
  <anchor x="626" y="0" name="bottom"/>
  <anchor x="608" y="-166" name="btm"/>
  <anchor x="626" y="558" name="center"/>
  <anchor x="736" y="0" name="ogonek"/>
  <anchor x="632" y="1660" name="top"/>
  <anchor x="876" y="1054" name="topright"/>
  <outline>
    <contour>
      <point x="616" y="-16" type="curve" smooth="yes"/>
      <point x="950" y="-16"/>
      <point x="1186" y="176"/>
      <point x="1190" y="534" type="curve" smooth="yes"/>
      <point x="1196" y="854"/>
      <point x="1048" y="1128"/>
      <point x="636" y="1128" type="curve" smooth="yes"/>
      <point x="302" y="1128"/>
      <point x="66" y="936"/>
      <point x="60" y="580" type="curve" smooth="yes"/>
      <point x="56" y="260"/>
      <point x="204" y="-16"/>
    </contour>
    <contour>
      <point x="624" y="234" type="curve" smooth="yes"/>
      <point x="482" y="234"/>
      <point x="436" y="384"/>
      <point x="436" y="568" type="curve" smooth="yes"/>
      <point x="436" y="770"/>
      <point x="484" y="878"/>
      <point x="630" y="878" type="curve" smooth="yes"/>
      <point x="770" y="878"/>
      <point x="814" y="730"/>
      <point x="814" y="550" type="curve" smooth="yes"/>
      <point x="814" y="338"/>
      <point x="766" y="234"/>
    </contour>
  </outline>
</glyph>
<glyph name="r" format="2">
  <advance width="930"/>
  <unicode hex="0072"/>
  <anchor x="318" y="0" name="bottom"/>
  <anchor x="318" y="-166" name="btm"/>
  <anchor x="522" y="1662" name="top"/>
  <outline>
    <contour>
      <point x="476" y="656" type="line"/>
      <point x="512" y="702"/>
      <point x="590" y="788"/>
      <point x="750" y="788" type="curve" smooth="yes"/>
      <point x="818" y="788"/>
      <point x="852" y="772"/>
      <point x="870" y="760" type="curve"/>
      <point x="870" y="1118" type="line"/>
      <point x="856" y="1126"/>
      <point x="820" y="1130"/>
      <point x="788" y="1130" type="curve" smooth="yes"/>
      <point x="632" y="1130"/>
      <point x="502" y="1040"/>
      <point x="462" y="918" type="curve"/>
    </contour>
    <contour>
      <point x="136" y="0" type="line"/>
      <point x="498" y="0" type="line"/>
      <point x="498" y="886" type="line"/>
      <point x="470" y="916" type="line"/>
      <point x="452" y="1114" type="line"/>
      <point x="136" y="1114" type="line"/>
    </contour>
  </outline>
</glyph>
<glyph name="u" format="2">
  <advance width="1296"/>
  <unicode hex="0075"/>
  <anchor x="646" y="0" name="bottom"/>
  <anchor x="628" y="-166" name="btm"/>
  <anchor x="1151" y="0" name="ogonek"/>
  <anchor x="650" y="1660" name="top"/>
  <anchor x="1008" y="1114" name="topright"/>
  <outline>
    <contour>
      <point x="498" y="-16" type="curve" smooth="yes"/>
      <point x="606" y="-16"/>
      <point x="752" y="30"/>
      <point x="830" y="94" type="curve"/>
      <point x="822" y="112" type="line"/>
      <point x="822" y="42" type="line" smooth="yes"/>
      <point x="822" y="-6"/>
      <point x="844" y="-16"/>
      <point x="890" y="-16" type="curve" smooth="yes"/>
      <point x="1152" y="-16" type="line"/>
      <point x="1152" y="1114" type="line"/>
      <point x="790" y="1114" type="line"/>
      <point x="790" y="296" type="line"/>
      <point x="764" y="274"/>
      <point x="698" y="244"/>
      <point x="632" y="244" type="curve" smooth="yes"/>
      <point x="532" y="244"/>
      <point x="484" y="282"/>
      <point x="484" y="450" type="curve" smooth="yes"/>
      <point x="484" y="1114" type="line"/>
      <point x="124" y="1114" type="line"/>
      <point x="124" y="458" type="line" smooth="yes"/>
      <point x="124" y="184"/>
      <point x="172" y="-16"/>
    </contour>
  </outline>
</glyph>
<glyph name="v" format="2">
  <advance width="1172"/>
  <unicode hex="0076"/>
  <anchor x="586" y="0" name="bottom"/>
  <anchor x="586" y="1114" name="top"/>
  <outline>
    <contour>
      <point x="414" y="-16" type="line"/>
      <point x="760" y="-16" type="line"/>
      <point x="1178" y="1114" type="line"/>
      <point x="798" y="1114" type="line"/>
      <point x="660" y="628" type="line"/>
      <point x="564" y="208" type="line"/>
      <point x="628" y="208" type="line"/>
      <point x="524" y="628" type="line"/>
      <point x="380" y="1114" type="line"/>
      <point x="-6" y="1114" type="line"/>
    </contour>
  </outline>
</glyph>
<glyph name="x" format="2">
  <advance width="1198"/>
  <unicode hex="0078"/>
  <anchor x="594" y="0" name="bottom"/>
  <anchor x="606" y="-166" name="btm"/>
  <anchor x="606" y="1660" name="top"/>
  <outline>
    <contour>
      <point x="8" y="0" type="line"/>
      <point x="408" y="0" type="line"/>
      <point x="566" y="284" type="line"/>
      <point x="630" y="414" type="line"/>
      <point x="544" y="414" type="line"/>
      <point x="618" y="284" type="line"/>
      <point x="794" y="0" type="line"/>
      <point x="1190" y="0" type="line"/>
      <point x="768" y="610" type="line"/>
      <point x="768" y="530" type="line"/>
      <point x="1182" y="1114" type="line"/>
      <point x="792" y="1114" type="line"/>
      <point x="644" y="860" type="line"/>
      <point x="570" y="716" type="line"/>
      <point x="648" y="716" type="line"/>
      <point x="562" y="860" type="line"/>
      <point x="402" y="1114" type="line"/>
      <point x="10" y="1114" type="line"/>
      <point x="418" y="522" type="line"/>
      <point x="410" y="588" type="line"/>
    </contour>
  </outline>
</glyph>
<glyph name="y" format="2">
  <advance width="1180"/>
  <unicode hex="0079"/>
  <anchor x="1046" y="0" name="bottom"/>
  <anchor x="606" y="1660" name="top"/>
  <outline>
    <contour>
      <point x="118" y="-476" type="line"/>
      <point x="130" y="-484"/>
      <point x="254" y="-496"/>
      <point x="284" y="-496" type="curve" smooth="yes"/>
      <point x="342" y="-496"/>
      <point x="426" y="-484"/>
      <point x="476" y="-464" type="curve" smooth="yes"/>
      <point x="618" y="-412"/>
      <point x="750" y="-292"/>
      <point x="832" y="-26" type="curve" smooth="yes"/>
      <point x="1182" y="1114" type="line"/>
      <point x="802" y="1114" type="line"/>
      <point x="678" y="528" type="line"/>
      <point x="598" y="162" type="line"/>
      <point x="626" y="162" type="line"/>
      <point x="538" y="528" type="line"/>
      <point x="378" y="1114" type="line"/>
      <point x="-4" y="1114" type="line"/>
      <point x="380" y="0" type="line"/>
      <point x="538" y="0" type="line"/>
      <point x="524" y="28" type="line"/>
      <point x="478" y="-204"/>
      <point x="344" y="-218"/>
      <point x="240" y="-218" type="curve" smooth="yes"/>
      <point x="206" y="-218"/>
      <point x="140" y="-206"/>
      <point x="118" y="-198" type="curve"/>
    </contour>
  </outline>
</glyph>
<glyph name="sterling" format="2">
  <advance width="1578"/>
  <unicode hex="00A3"/>
  <outline>
    <contour>
      <point x="100" y="122" type="curve" smooth="yes"/>
      <point x="100" y="24"/>
      <point x="188" y="-8"/>
      <point x="256" y="-8" type="curve" smooth="yes"/>
      <point x="334" y="-8"/>
      <point x="426" y="44"/>
      <point x="466" y="84" type="curve"/>
      <point x="584" y="84"/>
      <point x="732" y="-16"/>
      <point x="1024" y="-16" type="curve" smooth="yes"/>
      <point x="1348" y="-16"/>
      <point x="1492" y="136"/>
      <point x="1492" y="346" type="curve" smooth="yes"/>
      <point x="1492" y="514"/>
      <point x="1384" y="590"/>
      <point x="1342" y="616" type="curve"/>
      <point x="1086" y="494" type="line"/>
      <point x="1114" y="476"/>
      <point x="1152" y="420"/>
      <point x="1152" y="358" type="curve" smooth="yes"/>
      <point x="1152" y="272"/>
      <point x="1082" y="216"/>
      <point x="942" y="216" type="curve" smooth="yes"/>
      <point x="830" y="216"/>
      <point x="754" y="246"/>
      <point x="664" y="268" type="curve"/>
      <point x="728" y="322"/>
      <point x="760" y="422"/>
      <point x="760" y="560" type="curve" smooth="yes"/>
      <point x="760" y="942" type="line" smooth="yes"/>
      <point x="760" y="1188"/>
      <point x="850" y="1216"/>
      <point x="974" y="1216" type="curve" smooth="yes"/>
      <point x="1066" y="1216"/>
      <point x="1150" y="1168"/>
      <point x="1188" y="1136" type="curve"/>
      <point x="1330" y="1402" type="line"/>
      <point x="1260" y="1446"/>
      <point x="1142" y="1502"/>
      <point x="952" y="1502" type="curve" smooth="yes"/>
      <point x="588" y="1502"/>
      <point x="394" y="1292"/>
      <point x="394" y="1002" type="curve" smooth="yes"/>
      <point x="394" y="538" type="line" smooth="yes"/>
      <point x="394" y="460"/>
      <point x="388" y="330"/>
      <point x="360" y="304" type="curve"/>
      <point x="238" y="298"/>
      <point x="100" y="236"/>
    </contour>
    <contour>
      <point x="224" y="672" type="line"/>
      <point x="1044" y="672" type="line"/>
      <point x="1044" y="870" type="line"/>
      <point x="224" y="870" type="line"/>
    </contour>
  </outline>
</glyph>
<glyph name="currency" format="2">
  <advance width="1528"/>
  <unicode hex="00A4"/>
  <outline>
    <contour>
      <point x="762" y="304" type="curve" smooth="yes"/>
      <point x="1006" y="304"/>
      <point x="1210" y="500"/>
      <point x="1210" y="754" type="curve" smooth="yes"/>
      <point x="1210" y="1008"/>
      <point x="1006" y="1206"/>
      <point x="762" y="1206" type="curve" smooth="yes"/>
      <point x="518" y="1206"/>
      <point x="318" y="1008"/>
      <point x="318" y="754" type="curve"/>
      <point x="318" y="500"/>
      <point x="520" y="304"/>
    </contour>
    <contour>
      <point x="764" y="552" type="curve" smooth="yes"/>
      <point x="652" y="552"/>
      <point x="566" y="646"/>
      <point x="566" y="754" type="curve" smooth="yes"/>
      <point x="566" y="864"/>
      <point x="652" y="956"/>
      <point x="764" y="956" type="curve" smooth="yes"/>
      <point x="878" y="956"/>
      <point x="960" y="864"/>
      <point x="960" y="754" type="curve" smooth="yes"/>
      <point x="960" y="646"/>
      <point x="878" y="552"/>
    </contour>
    <contour>
      <point x="418" y="982" type="line"/>
      <point x="562" y="1136" type="line"/>
      <point x="354" y="1352" type="line"/>
      <point x="210" y="1196" type="line"/>
    </contour>
    <contour>
      <point x="1112" y="976" type="line"/>
      <point x="1338" y="1206" type="line"/>
      <point x="1192" y="1364" type="line"/>
      <point x="964" y="1134" type="line"/>
    </contour>
    <contour>
      <point x="354" y="158" type="line"/>
      <point x="564" y="372" type="line"/>
      <point x="416" y="526" type="line"/>
      <point x="208" y="312" type="line"/>
    </contour>
    <contour>
      <point x="1174" y="156" type="line"/>
      <point x="1320" y="310" type="line"/>
      <point x="1108" y="530" type="line"/>
      <point x="962" y="374" type="line"/>
    </contour>
  </outline>
</glyph>
<glyph name="yen" format="2">
  <advance width="1542"/>
  <unicode hex="00A5"/>
  <outline>
    <contour>
      <point x="604" y="0" type="line"/>
      <point x="938" y="0" type="line"/>
      <point x="938" y="844" type="line"/>
      <point x="870" y="590" type="line"/>
      <point x="1436" y="1486" type="line"/>
      <point x="1054" y="1486" type="line"/>
      <point x="854" y="1128" type="line"/>
      <point x="746" y="886" type="line"/>
      <point x="750" y="886"/>
      <point x="816" y="886"/>
      <point x="820" y="886" type="curve"/>
      <point x="710" y="1130" type="line"/>
      <point x="514" y="1486" type="line"/>
      <point x="126" y="1486" type="line"/>
      <point x="700" y="582" type="line"/>
      <point x="604" y="844" type="line"/>
    </contour>
    <contour>
      <point x="258" y="626" type="line"/>
      <point x="1274" y="626" type="line"/>
      <point x="1274" y="832" type="line"/>
      <point x="258" y="832" type="line"/>
    </contour>
    <contour>
      <point x="258" y="246" type="line"/>
      <point x="1274" y="246" type="line"/>
      <point x="1274" y="450" type="line"/>
      <point x="258" y="450" type="line"/>
    </contour>
  </outline>
</glyph>
<glyph name="logicalnot" format="2">
  <advance width="1444"/>
  <unicode hex="00AC"/>
  <outline>
    <contour>
      <point x="238" y="590" type="line"/>
      <point x="940" y="590" type="line"/>
      <point x="940" y="292" type="line"/>
      <point x="1206" y="292" type="line"/>
      <point x="1206" y="832" type="line"/>
      <point x="238" y="832" type="line"/>
    </contour>
  </outline>
</glyph>
<glyph name="macron" format="2">
  <advance width="708"/>
  <unicode hex="00AF"/>
  <anchor x="354" y="1662" name="_top"/>
  <outline>
    <contour>
      <point x="52" y="1372" type="line"/>
      <point x="656" y="1372" type="line"/>
      <point x="656" y="1604" type="line"/>
      <point x="52" y="1604" type="line"/>
    </contour>
  </outline>
</glyph>
<glyph name="plusminus" format="2">
  <advance width="1368"/>
  <unicode hex="00B1"/>
  <outline>
    <contour>
      <point x="228" y="0" type="line"/>
      <point x="1126" y="0" type="line"/>
      <point x="1126" y="228" type="line"/>
      <point x="228" y="228" type="line"/>
    </contour>
    <component base="plus"/>
  </outline>
</glyph>
<glyph name="ordmasculine" format="2">
  <advance width="1052"/>
  <unicode hex="00BA"/>
  <outline>
    <contour>
      <point x="64" y="1132" type="curve" smooth="yes"/>
      <point x="60" y="840"/>
      <point x="222" y="648"/>
      <point x="518" y="648" type="curve" smooth="yes"/>
      <point x="746" y="648"/>
      <point x="970" y="780"/>
      <point x="976" y="1112" type="curve" smooth="yes"/>
      <point x="980" y="1394"/>
      <point x="826" y="1594"/>
      <point x="542" y="1594" type="curve" smooth="yes"/>
      <point x="316" y="1594"/>
      <point x="68" y="1466"/>
    </contour>
    <contour>
      <point x="362" y="1132" type="curve" smooth="yes"/>
      <point x="362" y="1308"/>
      <point x="426" y="1374"/>
      <point x="530" y="1376" type="curve" smooth="yes"/>
      <point x="628" y="1378"/>
      <point x="678" y="1276"/>
      <point x="678" y="1110" type="curve" smooth="yes"/>
      <point x="678" y="938"/>
      <point x="628" y="866"/>
      <point x="530" y="864" type="curve" smooth="yes"/>
      <point x="418" y="862"/>
      <point x="362" y="970"/>
    </contour>
  </outline>
</glyph>
<glyph name="questiondown" format="2">
  <advance width="1108"/>
  <unicode hex="00BF"/>
  <outline>
    <contour>
      <point x="786" y="966" type="curve"/>
      <point x="510" y="966" type="line"/>
      <point x="528" y="892"/>
      <point x="548" y="838"/>
      <point x="544" y="780" type="curve" smooth="yes"/>
      <point x="532" y="476"/>
      <point x="120" y="494"/>
      <point x="120" y="104" type="curve" smooth="yes"/>
      <point x="116" y="-148"/>
      <point x="300" y="-314"/>
      <point x="684" y="-314" type="curve" smooth="yes"/>
      <point x="808" y="-314"/>
      <point x="956" y="-286"/>
      <point x="1004" y="-254" type="curve"/>
      <point x="1004" y="8" type="line"/>
      <point x="962" y="-10"/>
      <point x="882" y="-40"/>
      <point x="774" y="-40" type="curve" smooth="yes"/>
      <point x="578" y="-40"/>
      <point x="508" y="30"/>
      <point x="508" y="142" type="curve" smooth="yes"/>
      <point x="508" y="384"/>
      <point x="860" y="412"/>
      <point x="858" y="720" type="curve" smooth="yes"/>
      <point x="858" y="842"/>
      <point x="818" y="912"/>
    </contour>
    <contour>
      <point x="636" y="1510" type="curve" smooth="yes"/>
      <point x="518" y="1510"/>
      <point x="426" y="1410"/>
      <point x="426" y="1298" type="curve" smooth="yes"/>
      <point x="426" y="1186"/>
      <point x="502" y="1104"/>
      <point x="618" y="1104" type="curve" smooth="yes"/>
      <point x="736" y="1104"/>
      <point x="832" y="1202"/>
      <point x="830" y="1314" type="curve" smooth="yes"/>
      <point x="830" y="1426"/>
      <point x="750" y="1510"/>
    </contour>
  </outline>
</glyph>
<glyph name="multiply" format="2">
  <advance width="1370"/>
  <unicode hex="00D7"/>
  <outline>
    <contour>
      <point x="146" y="382" type="line"/>
      <point x="328" y="202" type="line"/>
      <point x="684" y="580" type="line"/>
      <point x="1042" y="202" type="line"/>
      <point x="1224" y="382" type="line"/>
      <point x="856" y="758" type="line"/>
      <point x="1226" y="1144" type="line"/>
      <point x="1044" y="1320" type="line"/>
      <point x="686" y="930" type="line"/>
      <point x="328" y="1320" type="line"/>
      <point x="146" y="1144" type="line"/>
      <point x="516" y="756" type="line"/>
    </contour>
  </outline>
</glyph>
<glyph name="Oslash" format="2">
  <advance width="1566"/>
  <unicode hex="00D8"/>
  <anchor x="784" y="0" name="bottom"/>
  <anchor x="764" y="1660" name="top"/>
  <outline>
    <contour>
      <point x="358" y="-228" type="line"/>
      <point x="1344" y="1742" type="line"/>
      <point x="1216" y="1768" type="line"/>
      <point x="230" y="-204" type="line"/>
    </contour>
    <contour>
      <point x="778" y="-16" type="curve" smooth="yes"/>
      <point x="1184" y="-8"/>
      <point x="1464" y="218"/>
      <point x="1474" y="746" type="curve" smooth="yes"/>
      <point x="1482" y="1216"/>
      <point x="1228" y="1514"/>
      <point x="806" y="1502" type="curve" smooth="yes"/>
      <point x="394" y="1490"/>
      <point x="100" y="1278"/>
      <point x="90" y="750" type="curve" smooth="yes"/>
      <point x="82" y="278"/>
      <point x="338" y="-24"/>
    </contour>
    <contour>
      <point x="784" y="256" type="curve" smooth="yes"/>
      <point x="576" y="256"/>
      <point x="474" y="458"/>
      <point x="474" y="740" type="curve" smooth="yes"/>
      <point x="474" y="1104"/>
      <point x="620" y="1222"/>
      <point x="800" y="1222" type="curve" smooth="yes"/>
      <point x="998" y="1222"/>
      <point x="1090" y="1034"/>
      <point x="1090" y="756" type="curve" smooth="yes"/>
      <point x="1090" y="398"/>
      <point x="974" y="256"/>
    </contour>
  </outline>
</glyph>
<glyph name="germandbls" format="2">
  <advance width="1380"/>
  <unicode hex="00DF"/>
  <anchor x="690" y="0" name="bottom"/>
  <anchor x="690" y="1114" name="top"/>
  <outline>
    <contour>
      <point x="172" y="0" type="line"/>
      <point x="538" y="0" type="line"/>
      <point x="538" y="930" type="line" smooth="yes"/>
      <point x="538" y="1218"/>
      <point x="624" y="1314"/>
      <point x="760" y="1314" type="curve" smooth="yes"/>
      <point x="850" y="1314"/>
      <point x="900" y="1264"/>
      <point x="900" y="1190" type="curve" smooth="yes"/>
      <point x="900" y="1022"/>
      <point x="712" y="1004"/>
      <point x="712" y="822" type="curve" smooth="yes"/>
      <point x="712" y="592"/>
      <point x="964" y="536"/>
      <point x="964" y="354" type="curve" smooth="yes"/>
      <point x="964" y="250"/>
      <point x="880" y="224"/>
      <point x="814" y="224" type="curve" smooth="yes"/>
      <point x="752" y="224"/>
      <point x="692" y="250"/>
      <point x="672" y="260" type="curve"/>
      <point x="672" y="20" type="line"/>
      <point x="702" y="2"/>
      <point x="802" y="-16"/>
      <point x="906" y="-16" type="curve" smooth="yes"/>
      <point x="1124" y="-16"/>
      <point x="1340" y="60"/>
      <point x="1340" y="362" type="curve" smooth="yes"/>
      <point x="1340" y="676"/>
      <point x="1030" y="760"/>
      <point x="1030" y="880" type="curve" smooth="yes"/>
      <point x="1030" y="998"/>
      <point x="1256" y="1004"/>
      <point x="1256" y="1242" type="curve" smooth="yes"/>
      <point x="1256" y="1412"/>
      <point x="1096" y="1542"/>
      <point x="810" y="1542" type="curve" smooth="yes"/>
      <point x="460" y="1542"/>
      <point x="172" y="1380"/>
      <point x="172" y="960" type="curve" smooth="yes"/>
    </contour>
    <contour>
      <point x="40" y="876" type="line"/>
      <point x="174" y="876" type="line"/>
      <point x="224" y="1010" type="line"/>
      <point x="196" y="1126" type="line"/>
      <point x="40" y="1094" type="line"/>
    </contour>
  </outline>
</glyph>
<glyph name="ae" format="2">
  <advance width="1834"/>
  <unicode hex="00E6"/>
  <anchor x="918" y="0" name="bottom"/>
  <anchor x="916" y="1660" name="top"/>
  <outline>
    <contour>
      <point x="1284" y="-16" type="curve" smooth="yes"/>
      <point x="1480" y="-16"/>
      <point x="1646" y="44"/>
      <point x="1718" y="104" type="curve"/>
      <point x="1664" y="300" type="line"/>
      <point x="1610" y="272"/>
      <point x="1474" y="244"/>
      <point x="1368" y="244" type="curve" smooth="yes"/>
      <point x="1194" y="244"/>
      <point x="1092" y="316"/>
      <point x="1088" y="510" type="curve"/>
      <point x="1084" y="808"/>
      <point x="1154" y="896"/>
      <point x="1278" y="896" type="curve" smooth="yes"/>
      <point x="1388" y="896"/>
      <point x="1428" y="814"/>
      <point x="1418" y="652" type="curve"/>
      <point x="938" y="652" type="line"/>
      <point x="918" y="476" type="line"/>
      <point x="1740" y="476" type="line"/>
      <point x="1746" y="524"/>
      <point x="1750" y="596"/>
      <point x="1750" y="676" type="curve"/>
      <point x="1748" y="1034"/>
      <point x="1522" y="1128"/>
      <point x="1286" y="1128" type="curve" smooth="yes"/>
      <point x="934" y="1128"/>
      <point x="732" y="886"/>
      <point x="732" y="562" type="curve" smooth="yes"/>
      <point x="732" y="200"/>
      <point x="926" y="-16"/>
    </contour>
    <contour>
      <point x="90" y="326" type="curve" smooth="yes"/>
      <point x="90" y="110"/>
      <point x="244" y="-16"/>
      <point x="452" y="-16" type="curve" smooth="yes"/>
      <point x="608" y="-16"/>
      <point x="766" y="38"/>
      <point x="872" y="166" type="curve"/>
      <point x="856" y="250" type="line"/>
      <point x="784" y="300" type="line"/>
      <point x="750" y="246"/>
      <point x="668" y="208"/>
      <point x="598" y="208" type="curve" smooth="yes"/>
      <point x="524" y="208"/>
      <point x="456" y="250"/>
      <point x="456" y="352" type="curve" smooth="yes"/>
      <point x="456" y="438"/>
      <point x="504" y="464"/>
      <point x="546" y="482" type="curve" smooth="yes"/>
      <point x="586" y="500"/>
      <point x="656" y="516"/>
      <point x="740" y="516" type="curve"/>
      <point x="786" y="626" type="line"/>
      <point x="734" y="690" type="line"/>
      <point x="602" y="690"/>
      <point x="424" y="676"/>
      <point x="296" y="620" type="curve" smooth="yes"/>
      <point x="170" y="566"/>
      <point x="90" y="458"/>
    </contour>
    <contour>
      <point x="208" y="794" type="line"/>
      <point x="258" y="824"/>
      <point x="410" y="874"/>
      <point x="534" y="874" type="curve" smooth="yes"/>
      <point x="670" y="874"/>
      <point x="734" y="840"/>
      <point x="734" y="750" type="curve" smooth="yes"/>
      <point x="734" y="582" type="line"/>
      <point x="1050" y="584" type="line"/>
      <point x="1050" y="694" type="line" smooth="yes"/>
      <point x="1050" y="1038"/>
      <point x="934" y="1132"/>
      <point x="632" y="1132" type="curve" smooth="yes"/>
      <point x="372" y="1132"/>
      <point x="174" y="1034"/>
      <point x="132" y="1010" type="curve"/>
    </contour>
  </outline>
</glyph>
<glyph name="divide" format="2">
  <advance width="1384"/>
  <unicode hex="00F7"/>
  <outline>
    <contour>
      <point x="708" y="1004" type="curve" smooth="yes"/>
      <point x="832" y="1004"/>
      <point x="924" y="1108"/>
      <point x="924" y="1224" type="curve" smooth="yes"/>
      <point x="924" y="1340"/>
      <point x="850" y="1426"/>
      <point x="726" y="1426" type="curve" smooth="yes"/>
      <point x="604" y="1426"/>
      <point x="508" y="1324"/>
      <point x="506" y="1208" type="curve" smooth="yes"/>
      <point x="506" y="1092"/>
      <point x="588" y="1004"/>
    </contour>
    <contour>
      <point x="706" y="94" type="curve" smooth="yes"/>
      <point x="830" y="94"/>
      <point x="922" y="198"/>
      <point x="922" y="314" type="curve" smooth="yes"/>
      <point x="922" y="430"/>
      <point x="846" y="516"/>
      <point x="724" y="516" type="curve" smooth="yes"/>
      <point x="602" y="516"/>
      <point x="504" y="414"/>
      <point x="504" y="298" type="curve" smooth="yes"/>
      <point x="504" y="182"/>
      <point x="586" y="94"/>
    </contour>
    <contour>
      <point x="186" y="624" type="line"/>
      <point x="1198" y="624" type="line"/>
      <point x="1198" y="886" type="line"/>
      <point x="186" y="886" type="line"/>
    </contour>
  </outline>
</glyph>
<glyph name="hbar" format="2">
  <advance width="1348"/>
  <unicode hex="0127"/>
  <outline>
    <contour>
      <point x="30" y="1266" type="line"/>
      <point x="726" y="1266" type="line"/>
      <point x="726" y="1464" type="line"/>
      <point x="30" y="1464" type="line"/>
    </contour>
    <component base="h"/>
  </outline>
</glyph>
<glyph name="Lslash" format="2">
  <advance width="1088"/>
  <unicode hex="0141"/>
  <outline>
    <contour>
      <point x="18" y="744" type="line"/>
      <point x="88" y="554" type="line"/>
      <point x="864" y="838" type="line"/>
      <point x="792" y="1030" type="line"/>
    </contour>
    <component base="L"/>
  </outline>
</glyph>
<glyph name="Tbar" format="2">
  <advance width="1224"/>
  <unicode hex="0166"/>
  <outline>
    <contour>
      <point x="172" y="544" type="line"/>
      <point x="1078" y="544" type="line"/>
      <point x="1078" y="778" type="line"/>
      <point x="172" y="778" type="line"/>
    </contour>
    <component base="T"/>
  </outline>
</glyph>
<glyph name="tbar" format="2">
  <advance width="904"/>
  <unicode hex="0167"/>
  <outline>
    <contour>
      <point x="58" y="480" type="line"/>
      <point x="836" y="480" type="line"/>
      <point x="836" y="720" type="line"/>
      <point x="58" y="720" type="line"/>
    </contour>
    <component base="t"/>
  </outline>
</glyph>
<glyph name="ezh" format="2">
  <advance width="1004"/>
  <unicode hex="0292"/>
  <anchor x="484" y="0" name="bottom"/>
  <anchor x="432" y="1662" name="top"/>
  <outline>
    <contour>
      <point x="268" y="-300" type="curve" smooth="yes"/>
      <point x="730" y="-300"/>
      <point x="910" y="-64"/>
      <point x="910" y="182" type="curve" smooth="yes"/>
      <point x="910" y="352"/>
      <point x="794" y="512"/>
      <point x="562" y="532" type="curve"/>
      <point x="944" y="980" type="line"/>
      <point x="868" y="1114" type="line"/>
      <point x="70" y="1114" type="line"/>
      <point x="70" y="852" type="line"/>
      <point x="534" y="852" type="line"/>
      <point x="416" y="736" type="line"/>
      <point x="188" y="496" type="line"/>
      <point x="334" y="326" type="line"/>
      <point x="454" y="356"/>
      <point x="590" y="292"/>
      <point x="590" y="178" type="curve" smooth="yes"/>
      <point x="590" y="66"/>
      <point x="526" y="-26"/>
      <point x="234" y="-26" type="curve" smooth="yes"/>
      <point x="188" y="-26"/>
      <point x="138" y="-24"/>
      <point x="88" y="-6" type="curve"/>
      <point x="86" y="-286" type="line"/>
      <point x="146" y="-290"/>
      <point x="206" y="-300"/>
    </contour>
  </outline>
</glyph>
<glyph name="ringhalfright" format="2">
  <unicode hex="02BE"/>
  <anchor x="0" y="1660" name="_top"/>
  <outline>
    <contour>
      <point x="0" y="1266" type="line"/>
      <point x="218" y="1266"/>
      <point x="358" y="1376"/>
      <point x="354" y="1572" type="curve" smooth="yes"/>
      <point x="350" y="1782"/>
      <point x="174" y="1860"/>
      <point x="0" y="1862" type="curve"/>
      <point x="0" y="1702" type="line"/>
      <point x="98" y="1702"/>
      <point x="154" y="1644"/>
      <point x="154" y="1570" type="curve" smooth="yes"/>
      <point x="154" y="1488"/>
      <point x="90" y="1430"/>
      <point x="0" y="1430" type="curve"/>
    </contour>
  </outline>
</glyph>
<glyph name="ringhalfleft" format="2">
  <unicode hex="02BF"/>
  <anchor x="0" y="1660" name="_top"/>
  <outline>
    <contour>
      <point x="0" y="1266" type="curve"/>
      <point x="0" y="1430" type="line"/>
      <point x="-90" y="1430"/>
      <point x="-154" y="1488"/>
      <point x="-154" y="1570" type="curve" smooth="yes"/>
      <point x="-154" y="1644"/>
      <point x="-98" y="1702"/>
      <point x="0" y="1702" type="curve"/>
      <point x="0" y="1862" type="line"/>
      <point x="-174" y="1860"/>
      <point x="-350" y="1782"/>
      <point x="-354" y="1572" type="curve" smooth="yes"/>
      <point x="-358" y="1376"/>
      <point x="-218" y="1266"/>
    </contour>
  </outline>
</glyph>
<glyph name="firsttonechinese" format="2">
  <advance width="684"/>
  <unicode hex="02C9"/>
  <anchor x="326" y="1662" name="_top"/>
  <outline>
    <contour>
      <point x="40" y="1680" type="line"/>
      <point x="644" y="1680" type="line"/>
      <point x="644" y="1920" type="line"/>
      <point x="40" y="1920" type="line"/>
    </contour>
  </outline>
</glyph>
<glyph name="secondtonechinese" format="2">
  <unicode hex="02CA"/>
  <anchor x="0" y="1662" name="_top"/>
  <anchor x="0" y="1966" name="top"/>
  <outline>
    <contour>
      <point x="22" y="1208" type="line"/>
      <point x="108" y="1250"/>
      <point x="358" y="1450"/>
      <point x="420" y="1598" type="curve"/>
      <point x="184" y="1782" type="line"/>
      <point x="90" y="1632"/>
      <point x="-58" y="1454"/>
      <point x="-148" y="1364" type="curve"/>
    </contour>
  </outline>
</glyph>
<glyph name="acutecomb" format="2">
  <unicode hex="0301"/>
  <anchor x="0" y="1662" name="_top"/>
  <anchor x="-236" y="2048" name="top"/>
  <outline>
    <contour>
      <point x="-52" y="1280" type="line"/>
      <point x="34" y="1322"/>
      <point x="280" y="1518"/>
      <point x="342" y="1666" type="curve"/>
      <point x="106" y="1850" type="line"/>
      <point x="12" y="1700"/>
      <point x="-132" y="1526"/>
      <point x="-222" y="1436" type="curve"/>
    </contour>
  </outline>
</glyph>
<glyph name="circumflexcomb" format="2">
  <unicode hex="0302"/>
  <anchor x="0" y="1660" name="_top"/>
  <anchor x="0" y="2154" name="top"/>
  <outline>
    <contour>
      <point x="-234" y="1232" type="line"/>
      <point x="0" y="1442" type="line"/>
      <point x="234" y="1232" type="line"/>
      <point x="406" y="1332" type="line"/>
      <point x="110" y="1692" type="line"/>
      <point x="-108" y="1692" type="line"/>
      <point x="-406" y="1332" type="line"/>
    </contour>
  </outline>
</glyph>
<glyph name="breveinvertedcomb" format="2">
  <unicode hex="0311"/>
  <anchor x="0" y="1662" name="_top"/>
  <anchor x="0" y="1966" name="top"/>
  <outline>
    <contour>
      <point x="0" y="1648" type="curve" smooth="yes"/>
      <point x="-248" y="1648"/>
      <point x="-380" y="1482"/>
      <point x="-376" y="1256" type="curve"/>
      <point x="-154" y="1256" type="line"/>
      <point x="-150" y="1302"/>
      <point x="-140" y="1410"/>
      <point x="0" y="1410" type="curve" smooth="yes"/>
      <point x="136" y="1410"/>
      <point x="148" y="1302"/>
      <point x="156" y="1256" type="curve"/>
      <point x="376" y="1256" type="line"/>
      <point x="378" y="1482"/>
      <point x="236" y="1648"/>
    </contour>
  </outline>
</glyph>
<glyph name="pi" format="2">
  <advance width="1566"/>
  <unicode hex="03C0"/>
  <outline>
    <contour>
      <point x="20" y="844" type="curve"/>
      <point x="144" y="752" type="line"/>
      <point x="184" y="790"/>
      <point x="224" y="830"/>
      <point x="328" y="830" type="curve" smooth="yes"/>
      <point x="1222" y="832" type="line" smooth="yes"/>
      <point x="1444" y="832"/>
      <point x="1540" y="930"/>
      <point x="1546" y="1186" type="curve"/>
      <point x="1354" y="1186" type="line"/>
      <point x="1336" y="1134"/>
      <point x="1302" y="1114"/>
      <point x="1222" y="1114" type="curve" smooth="yes"/>
      <point x="362" y="1114" type="line" smooth="yes"/>
      <point x="192" y="1114"/>
      <point x="126" y="1070"/>
      <point x="72" y="1004" type="curve" smooth="yes"/>
      <point x="36" y="952"/>
      <point x="22" y="880"/>
    </contour>
    <contour>
      <point x="870" y="276" type="line"/>
      <point x="850" y="82"/>
      <point x="930" y="-24"/>
      <point x="1096" y="-24" type="curve" smooth="yes"/>
      <point x="1312" y="-24"/>
      <point x="1466" y="102"/>
      <point x="1524" y="214" type="curve"/>
      <point x="1416" y="342" type="line"/>
      <point x="1376" y="296"/>
      <point x="1318" y="224"/>
      <point x="1248" y="224" type="curve" smooth="yes"/>
      <point x="1210" y="224"/>
      <point x="1182" y="256"/>
      <point x="1186" y="340" type="curve" smooth="yes"/>
      <point x="1210" y="1058" type="line"/>
      <point x="948" y="1056" type="line"/>
    </contour>
    <contour>
      <point x="128" y="124" type="curve"/>
      <point x="328" y="-24" type="line"/>
      <point x="416" y="-20"/>
      <point x="484" y="12"/>
      <point x="524" y="42" type="curve" smooth="yes"/>
      <point x="612" y="120"/>
      <point x="656" y="180"/>
      <point x="668" y="390" type="curve" smooth="yes"/>
      <point x="702" y="1056" type="line"/>
      <point x="424" y="1056" type="line"/>
      <point x="354" y="476" type="line" smooth="yes"/>
      <point x="340" y="356"/>
      <point x="316" y="250"/>
      <point x="212" y="166" type="curve" smooth="yes"/>
      <point x="182" y="142"/>
      <point x="146" y="128"/>
    </contour>
  </outline>
</glyph>
<glyph name="dram-arm" format="2">
  <advance width="1712"/>
  <unicode hex="058F"/>
  <anchor x="698" y="-166" name="btm"/>
  <anchor x="702" y="1660" name="top"/>
  <outline>
    <contour>
      <point x="710" y="1486" type="curve" smooth="yes"/>
      <point x="410" y="1486"/>
      <point x="74" y="1230"/>
      <point x="82" y="846" type="curve" smooth="yes"/>
      <point x="86" y="668" type="line"/>
      <point x="456" y="668" type="line"/>
      <point x="452" y="802" type="line" smooth="yes"/>
      <point x="442" y="1114"/>
      <point x="538" y="1192"/>
      <point x="704" y="1192" type="curve" smooth="yes"/>
      <point x="872" y="1192"/>
      <point x="956" y="1106"/>
      <point x="956" y="802" type="curve" smooth="yes"/>
      <point x="956" y="-16" type="line"/>
      <point x="1324" y="-16" type="line"/>
      <point x="1324" y="852" type="line" smooth="yes"/>
      <point x="1324" y="1250"/>
      <point x="1138" y="1486"/>
    </contour>
    <contour>
      <point x="646" y="530" type="line"/>
      <point x="1616" y="530" type="line"/>
      <point x="1616" y="730" type="line"/>
      <point x="646" y="730" type="line"/>
    </contour>
    <contour>
      <point x="616" y="166" type="line"/>
      <point x="1572" y="166" type="line"/>
      <point x="1572" y="368" type="line"/>
      <point x="616" y="368" type="line"/>
    </contour>
  </outline>
</glyph>
<glyph name="Germandbls" format="2">
  <advance width="1490"/>
  <unicode hex="1E9E"/>
  <anchor x="746" y="0" name="bottom"/>
  <anchor x="746" y="1486" name="top"/>
  <outline>
    <contour>
      <point x="100" y="0" type="line"/>
      <point x="478" y="0" type="line"/>
      <point x="478" y="848" type="line" smooth="yes"/>
      <point x="478" y="1114"/>
      <point x="596" y="1248"/>
      <point x="846" y="1248" type="curve" smooth="yes"/>
      <point x="928" y="1248"/>
      <point x="988" y="1234"/>
      <point x="1026" y="1214" type="curve"/>
      <point x="738" y="882" type="line"/>
      <point x="734" y="686" type="line"/>
      <point x="1004" y="686"/>
      <point x="1114" y="610"/>
      <point x="1114" y="444" type="curve" smooth="yes"/>
      <point x="1114" y="290"/>
      <point x="1000" y="232"/>
      <point x="902" y="232" type="curve" smooth="yes"/>
      <point x="800" y="232"/>
      <point x="726" y="274"/>
      <point x="682" y="298" type="curve"/>
      <point x="594" y="54" type="line"/>
      <point x="666" y="18"/>
      <point x="764" y="-22"/>
      <point x="974" y="-22" type="curve" smooth="yes"/>
      <point x="1284" y="-22"/>
      <point x="1500" y="166"/>
      <point x="1500" y="474" type="curve" smooth="yes"/>
      <point x="1500" y="742"/>
      <point x="1266" y="870"/>
      <point x="1154" y="870" type="curve"/>
      <point x="1398" y="1108" type="line"/>
      <point x="1398" y="1408" type="line"/>
      <point x="1298" y="1408"/>
      <point x="1106" y="1502"/>
      <point x="840" y="1502" type="curve" smooth="yes"/>
      <point x="362" y="1502"/>
      <point x="100" y="1212"/>
      <point x="100" y="736" type="curve" smooth="yes"/>
    </contour>
  </outline>
</glyph>
<glyph name="quoteleft" format="2">
  <advance width="610"/>
  <unicode hex="2018"/>
  <outline>
    <contour>
      <point x="296" y="894" type="curve"/>
      <point x="488" y="1042" type="line"/>
      <point x="488" y="1120" type="line"/>
      <point x="452" y="1142"/>
      <point x="400" y="1226"/>
      <point x="400" y="1350" type="curve" smooth="yes"/>
      <point x="400" y="1456"/>
      <point x="424" y="1554"/>
      <point x="456" y="1594" type="curve"/>
      <point x="456" y="1622" type="line"/>
      <point x="306" y="1714" type="line"/>
      <point x="248" y="1672"/>
      <point x="108" y="1534"/>
      <point x="108" y="1260" type="curve" smooth="yes"/>
      <point x="108" y="1062"/>
      <point x="210" y="926"/>
    </contour>
  </outline>
</glyph>
<glyph name="quoteright" format="2">
  <advance width="610"/>
  <unicode hex="2019"/>
  <outline>
    <contour>
      <point x="290" y="894" type="line"/>
      <point x="346" y="938"/>
      <point x="490" y="1082"/>
      <point x="490" y="1354" type="curve" smooth="yes"/>
      <point x="490" y="1552"/>
      <point x="392" y="1684"/>
      <point x="308" y="1714" type="curve"/>
      <point x="110" y="1566" type="line"/>
      <point x="110" y="1490" type="line"/>
      <point x="146" y="1468"/>
      <point x="198" y="1384"/>
      <point x="198" y="1260" type="curve" smooth="yes"/>
      <point x="198" y="1154"/>
      <point x="172" y="1056"/>
      <point x="142" y="1016" type="curve"/>
      <point x="142" y="988" type="line"/>
    </contour>
  </outline>
</glyph>
<glyph name="minute" format="2">
  <advance width="674"/>
  <unicode hex="2032"/>
  <outline>
    <contour>
      <point x="136" y="1162" type="line"/>
      <point x="408" y="1162" type="line"/>
      <point x="588" y="1806" type="line"/>
      <point x="250" y="1806" type="line"/>
    </contour>
  </outline>
</glyph>
<glyph name="fraction" format="2">
  <advance width="656"/>
  <unicode hex="2044"/>
  <outline>
    <contour>
      <point x="698" y="1916" type="line"/>
      <point x="-280" y="-102" type="line"/>
      <point x="-42" y="-102" type="line"/>
      <point x="936" y="1916" type="line"/>
    </contour>
  </outline>
</glyph>
<glyph name="colonsign" format="2">
  <advance width="1528"/>
  <unicode hex="20A1"/>
  <outline>
    <contour>
      <point x="610" y="-346" type="line"/>
      <point x="724" y="-346" type="line"/>
      <point x="746" y="0" type="line"/>
      <point x="788" y="-8"/>
      <point x="834" y="-10"/>
      <point x="880" y="-14" type="curve"/>
      <point x="858" y="-346" type="line"/>
      <point x="972" y="-346" type="line"/>
      <point x="994" y="-14" type="line"/>
      <point x="1140" y="-6"/>
      <point x="1244" y="34"/>
      <point x="1306" y="62" type="curve"/>
      <point x="1306" y="398" type="line"/>
      <point x="1258" y="352"/>
      <point x="1134" y="306"/>
      <point x="1016" y="300" type="curve"/>
      <point x="1072" y="1170" type="line"/>
      <point x="1188" y="1158"/>
      <point x="1256" y="1112"/>
      <point x="1278" y="1092" type="curve"/>
      <point x="1330" y="1442" type="line"/>
      <point x="1272" y="1454"/>
      <point x="1206" y="1482"/>
      <point x="1094" y="1494" type="curve"/>
      <point x="1112" y="1772" type="line"/>
      <point x="998" y="1772" type="line"/>
      <point x="980" y="1502" type="line"/>
      <point x="934" y="1502"/>
      <point x="906" y="1502"/>
      <point x="846" y="1498" type="curve"/>
      <point x="864" y="1772" type="line"/>
      <point x="750" y="1772" type="line"/>
      <point x="730" y="1480" type="line"/>
      <point x="372" y="1410"/>
      <point x="114" y="1168"/>
      <point x="114" y="740" type="curve" smooth="yes"/>
      <point x="114" y="370"/>
      <point x="288" y="114"/>
      <point x="634" y="22" type="curve"/>
    </contour>
    <contour>
      <point x="770" y="342" type="curve"/>
      <point x="824" y="1152" type="line"/>
      <point x="866" y="1166"/>
      <point x="910" y="1172"/>
      <point x="958" y="1174" type="curve"/>
      <point x="900" y="306" type="line"/>
      <point x="852" y="314"/>
      <point x="808" y="326"/>
    </contour>
    <contour>
      <point x="660" y="414" type="line"/>
      <point x="578" y="496"/>
      <point x="540" y="612"/>
      <point x="540" y="764" type="curve" smooth="yes"/>
      <point x="540" y="920"/>
      <point x="602" y="1032"/>
      <point x="706" y="1100" type="curve"/>
    </contour>
  </outline>
</glyph>
<glyph name="naira" format="2">
  <advance width="1710"/>
  <unicode hex="20A6"/>
  <outline>
    <contour>
      <point x="94" y="342" type="line"/>
      <point x="452" y="342" type="line"/>
      <point x="450" y="544" type="line"/>
      <point x="92" y="544" type="line"/>
    </contour>
    <contour>
      <point x="438" y="1114" type="line"/>
      <point x="82" y="1114" type="line"/>
      <point x="84" y="914" type="line"/>
      <point x="440" y="914" type="line"/>
    </contour>
    <contour>
      <point x="1256" y="340" type="line"/>
      <point x="1614" y="340" type="line"/>
      <point x="1612" y="542" type="line"/>
      <point x="1254" y="542" type="line"/>
    </contour>
    <contour>
      <point x="1600" y="1112" type="line"/>
      <point x="1244" y="1112" type="line"/>
      <point x="1246" y="912" type="line"/>
      <point x="1602" y="912" type="line"/>
    </contour>
    <component base="N" xOffset="42"/>
  </outline>
</glyph>
<glyph name="won" format="2">
  <advance width="2398"/>
  <unicode hex="20A9"/>
  <outline>
    <contour>
      <point x="224" y="342" type="line"/>
      <point x="572" y="342" type="line"/>
      <point x="570" y="544" type="line"/>
      <point x="222" y="544" type="line"/>
    </contour>
    <contour>
      <point x="558" y="1114" type="line"/>
      <point x="180" y="1114" type="line"/>
      <point x="182" y="914" type="line"/>
      <point x="560" y="914" type="line"/>
    </contour>
    <contour>
      <point x="1832" y="340" type="line"/>
      <point x="2180" y="340" type="line"/>
      <point x="2178" y="542" type="line"/>
      <point x="1830" y="542" type="line"/>
    </contour>
    <contour>
      <point x="2216" y="1112" type="line"/>
      <point x="1820" y="1112" type="line"/>
      <point x="1822" y="912" type="line"/>
      <point x="2218" y="912" type="line"/>
    </contour>
    <component base="W" xOffset="222"/>
  </outline>
</glyph>
<glyph name="dong" format="2">
  <advance width="1506"/>
  <unicode hex="20AB"/>
  <outline>
    <contour>
      <point x="544" y="284" type="curve" smooth="yes"/>
      <point x="720" y="284"/>
      <point x="794" y="352"/>
      <point x="836" y="392" type="curve"/>
      <point x="836" y="284" type="line"/>
      <point x="1164" y="284" type="line"/>
      <point x="1164" y="1322" type="line"/>
      <point x="1326" y="1322" type="line"/>
      <point x="1326" y="1486" type="line"/>
      <point x="1164" y="1486" type="line"/>
      <point x="1164" y="1654" type="line"/>
      <point x="802" y="1654" type="line"/>
      <point x="802" y="1486" type="line"/>
      <point x="484" y="1486" type="line"/>
      <point x="484" y="1322" type="line"/>
      <point x="802" y="1322" type="line"/>
      <point x="804" y="1204" type="line"/>
      <point x="774" y="1212"/>
      <point x="726" y="1218"/>
      <point x="656" y="1218" type="curve" smooth="yes"/>
      <point x="344" y="1218"/>
      <point x="146" y="1034"/>
      <point x="146" y="718" type="curve" smooth="yes"/>
      <point x="146" y="422"/>
      <point x="328" y="284"/>
    </contour>
    <contour>
      <point x="644" y="528" type="curve" smooth="yes"/>
      <point x="562" y="528"/>
      <point x="502" y="586"/>
      <point x="502" y="724" type="curve" smooth="yes"/>
      <point x="502" y="892"/>
      <point x="552" y="990"/>
      <point x="672" y="990" type="curve" smooth="yes"/>
      <point x="750" y="990"/>
      <point x="788" y="972"/>
      <point x="802" y="960" type="curve"/>
      <point x="802" y="572" type="line"/>
      <point x="776" y="554"/>
      <point x="722" y="528"/>
    </contour>
    <contour>
      <point x="140" y="0" type="line"/>
      <point x="1220" y="0" type="line"/>
      <point x="1220" y="172" type="line"/>
      <point x="140" y="172" type="line"/>
    </contour>
  </outline>
</glyph>
<glyph name="kip" format="2">
  <advance width="1536"/>
  <unicode hex="20AD"/>
  <outline>
    <contour>
      <point x="80" y="654" type="line"/>
      <point x="1312" y="654" type="line"/>
      <point x="1312" y="850" type="line"/>
      <point x="80" y="850" type="line"/>
    </contour>
    <contour>
      <point x="188" y="0" type="line"/>
      <point x="560" y="0" type="line"/>
      <point x="560" y="594" type="line"/>
      <point x="520" y="364" type="line"/>
      <point x="728" y="620" type="line"/>
      <point x="782" y="648" type="line"/>
      <point x="1426" y="1486" type="line"/>
      <point x="1024" y="1486" type="line"/>
      <point x="560" y="860" type="line"/>
      <point x="560" y="1486" type="line"/>
      <point x="188" y="1486" type="line"/>
    </contour>
    <contour>
      <point x="1040" y="0" type="line"/>
      <point x="1452" y="0" type="line"/>
      <point x="836" y="986" type="line"/>
      <point x="486" y="750" type="line"/>
      <point x="592" y="728" type="line"/>
    </contour>
  </outline>
</glyph>
<glyph name="tugrik" format="2">
  <advance width="1528"/>
  <unicode hex="20AE"/>
  <outline>
    <contour>
      <point x="336" y="560" type="line"/>
      <point x="1198" y="840" type="line"/>
      <point x="1202" y="1086" type="line"/>
      <point x="340" y="804" type="line"/>
    </contour>
    <contour>
      <point x="328" y="146" type="line"/>
      <point x="1190" y="426" type="line"/>
      <point x="1194" y="670" type="line"/>
      <point x="332" y="390" type="line"/>
    </contour>
    <component base="T" xOffset="152"/>
  </outline>
</glyph>
<glyph name="guarani" format="2">
  <advance width="1610"/>
  <unicode hex="20B2"/>
  <outline>
    <contour>
      <point x="114" y="736" type="curve" smooth="yes"/>
      <point x="114" y="304"/>
      <point x="356" y="46"/>
      <point x="712" y="-4" type="curve"/>
      <point x="710" y="-252" type="line"/>
      <point x="912" y="-252" type="line"/>
      <point x="914" y="-14" type="line"/>
      <point x="1214" y="-4"/>
      <point x="1278" y="78"/>
      <point x="1412" y="82" type="curve"/>
      <point x="1412" y="852" type="line"/>
      <point x="842" y="852" type="line"/>
      <point x="842" y="572" type="line"/>
      <point x="1048" y="550" type="line"/>
      <point x="1048" y="312" type="line"/>
      <point x="1008" y="290"/>
      <point x="946" y="284"/>
      <point x="856" y="284" type="curve" smooth="yes"/>
      <point x="656" y="284"/>
      <point x="528" y="476"/>
      <point x="528" y="762" type="curve" smooth="yes"/>
      <point x="528" y="1024"/>
      <point x="668" y="1186"/>
      <point x="924" y="1186" type="curve" smooth="yes"/>
      <point x="1108" y="1186"/>
      <point x="1260" y="1144"/>
      <point x="1322" y="1106" type="curve"/>
      <point x="1332" y="1442" type="line"/>
      <point x="1246" y="1458"/>
      <point x="1134" y="1494"/>
      <point x="962" y="1500" type="curve"/>
      <point x="962" y="1720" type="line"/>
      <point x="758" y="1720" type="line"/>
      <point x="758" y="1494" type="line"/>
      <point x="390" y="1452"/>
      <point x="114" y="1232"/>
    </contour>
  </outline>
</glyph>
<glyph name="hryvnia" format="2">
  <advance width="1378"/>
  <unicode hex="20B4"/>
  <anchor x="674" y="-166" name="btm"/>
  <anchor x="730" y="1660" name="top"/>
  <outline>
    <contour>
      <point x="82" y="662" type="line"/>
      <point x="82" y="460" type="line"/>
      <point x="206" y="460" type="line"/>
      <point x="204" y="448"/>
      <point x="204" y="436"/>
      <point x="204" y="424" type="curve" smooth="yes"/>
      <point x="204" y="158"/>
      <point x="396" y="-16"/>
      <point x="746" y="-16" type="curve" smooth="yes"/>
      <point x="958" y="-16"/>
      <point x="1120" y="40"/>
      <point x="1178" y="76" type="curve"/>
      <point x="1132" y="366" type="line"/>
      <point x="1058" y="324"/>
      <point x="932" y="270"/>
      <point x="776" y="270" type="curve" smooth="yes"/>
      <point x="636" y="270"/>
      <point x="576" y="308"/>
      <point x="576" y="396" type="curve" smooth="yes"/>
      <point x="576" y="420"/>
      <point x="582" y="442"/>
      <point x="592" y="460" type="curve"/>
      <point x="1282" y="460" type="line"/>
      <point x="1282" y="662" type="line"/>
    </contour>
    <contour>
      <point x="1282" y="824" type="line"/>
      <point x="1282" y="1024" type="line"/>
      <point x="1162" y="1024" type="line"/>
      <point x="1164" y="1046"/>
      <point x="1166" y="1070"/>
      <point x="1166" y="1094" type="curve" smooth="yes"/>
      <point x="1166" y="1366"/>
      <point x="950" y="1502"/>
      <point x="636" y="1502" type="curve" smooth="yes"/>
      <point x="412" y="1502"/>
      <point x="270" y="1448"/>
      <point x="216" y="1416" type="curve"/>
      <point x="274" y="1138" type="line"/>
      <point x="334" y="1184"/>
      <point x="474" y="1232"/>
      <point x="604" y="1232" type="curve" smooth="yes"/>
      <point x="744" y="1232"/>
      <point x="808" y="1182"/>
      <point x="808" y="1108" type="curve" smooth="yes"/>
      <point x="808" y="1076"/>
      <point x="798" y="1050"/>
      <point x="778" y="1024" type="curve"/>
      <point x="84" y="1024" type="line"/>
      <point x="84" y="824" type="line"/>
    </contour>
  </outline>
</glyph>
<glyph name="rupeeIndian" format="2">
  <advance width="1466"/>
  <unicode hex="20B9"/>
  <outline>
    <contour>
      <point x="1306" y="0" type="line"/>
      <point x="1150" y="180"/>
      <point x="1098" y="460"/>
      <point x="928" y="588" type="curve"/>
      <point x="1036" y="658"/>
      <point x="1104" y="744"/>
      <point x="1134" y="904" type="curve"/>
      <point x="1370" y="904" type="line"/>
      <point x="1370" y="1096" type="line"/>
      <point x="1148" y="1096" type="line"/>
      <point x="1144" y="1170"/>
      <point x="1098" y="1272"/>
      <point x="1036" y="1296" type="curve"/>
      <point x="1370" y="1296" type="line"/>
      <point x="1370" y="1486" type="line"/>
      <point x="180" y="1486" type="line"/>
      <point x="180" y="1296" type="line"/>
      <point x="496" y="1296" type="line" smooth="yes"/>
      <point x="696" y="1296"/>
      <point x="724" y="1202"/>
      <point x="732" y="1096" type="curve"/>
      <point x="180" y="1096" type="line"/>
      <point x="180" y="904" type="line"/>
      <point x="732" y="904" type="line"/>
      <point x="710" y="780"/>
      <point x="604" y="724"/>
      <point x="496" y="718" type="curve" smooth="yes"/>
      <point x="324" y="708"/>
      <point x="222" y="716"/>
      <point x="180" y="720" type="curve"/>
      <point x="180" y="502" type="line"/>
      <point x="284" y="492"/>
      <point x="392" y="494"/>
      <point x="562" y="504" type="curve"/>
      <point x="692" y="386"/>
      <point x="802" y="0"/>
      <point x="882" y="0" type="curve" smooth="yes"/>
    </contour>
  </outline>
</glyph>
<glyph name="liraTurkish" format="2">
  <advance width="1442"/>
  <unicode hex="20BA"/>
  <outline>
    <contour>
      <point x="274" y="0" type="line"/>
      <point x="644" y="0" type="line" smooth="yes"/>
      <point x="1082" y="0"/>
      <point x="1346" y="250"/>
      <point x="1346" y="648" type="curve" smooth="yes"/>
      <point x="1346" y="702" type="line"/>
      <point x="1018" y="702" type="line"/>
      <point x="1010" y="432"/>
      <point x="922" y="280"/>
      <point x="644" y="280" type="curve"/>
      <point x="644" y="670" type="line"/>
      <point x="1024" y="828" type="line"/>
      <point x="1024" y="992" type="line"/>
      <point x="644" y="834" type="line"/>
      <point x="644" y="1024" type="line"/>
      <point x="1046" y="1194" type="line"/>
      <point x="1046" y="1366" type="line"/>
      <point x="644" y="1198" type="line"/>
      <point x="644" y="1502" type="line"/>
      <point x="274" y="1502" type="line"/>
      <point x="274" y="1042" type="line"/>
      <point x="82" y="960" type="line"/>
      <point x="82" y="788" type="line"/>
      <point x="274" y="868" type="line"/>
      <point x="274" y="678" type="line"/>
      <point x="92" y="604" type="line"/>
      <point x="92" y="440" type="line"/>
      <point x="274" y="516" type="line"/>
    </contour>
  </outline>
</glyph>
<glyph name="bitcoin" format="2">
  <advance width="1428"/>
  <unicode hex="20BF"/>
  <outline>
    <contour>
      <point x="484" y="1426" type="line"/>
      <point x="596" y="1426" type="line"/>
      <point x="602" y="1704" type="line"/>
      <point x="490" y="1704" type="line"/>
    </contour>
    <contour>
      <point x="772" y="1426" type="line"/>
      <point x="884" y="1426" type="line"/>
      <point x="890" y="1704" type="line"/>
      <point x="778" y="1704" type="line"/>
    </contour>
    <contour>
      <point x="440" y="-184" type="line"/>
      <point x="552" y="-184" type="line"/>
      <point x="558" y="94" type="line"/>
      <point x="446" y="94" type="line"/>
    </contour>
    <contour>
      <point x="728" y="-184" type="line"/>
      <point x="840" y="-184" type="line"/>
      <point x="846" y="94" type="line"/>
      <point x="734" y="94" type="line"/>
    </contour>
    <component base="B"/>
  </outline>
</glyph>
<glyph name="estimated" format="2">
  <advance width="1348"/>
  <unicode hex="212E"/>
  <outline>
    <contour>
      <point x="718" y="-16" type="curve" smooth="yes"/>
      <point x="908" y="-16"/>
      <point x="1086" y="52"/>
      <point x="1168" y="112" type="curve"/>
      <point x="1100" y="260" type="line"/>
      <point x="1030" y="206"/>
      <point x="892" y="144"/>
      <point x="732" y="144" type="curve" smooth="yes"/>
      <point x="618" y="144"/>
      <point x="514" y="170"/>
      <point x="440" y="236" type="curve"/>
      <point x="440" y="598" type="line"/>
      <point x="1232" y="598" type="line"/>
      <point x="1244" y="648"/>
      <point x="1244" y="728"/>
      <point x="1244" y="812" type="curve"/>
      <point x="1232" y="1134"/>
      <point x="1006" y="1330"/>
      <point x="718" y="1324" type="curve" smooth="yes"/>
      <point x="302" y="1318"/>
      <point x="106" y="1038"/>
      <point x="106" y="656" type="curve" smooth="yes"/>
      <point x="106" y="236"/>
      <point x="330" y="-16"/>
    </contour>
    <contour>
      <point x="440" y="750" type="line"/>
      <point x="440" y="1072" type="line"/>
      <point x="508" y="1138"/>
      <point x="600" y="1166"/>
      <point x="704" y="1166" type="curve" smooth="yes"/>
      <point x="804" y="1166"/>
      <point x="876" y="1144"/>
      <point x="926" y="1110" type="curve"/>
      <point x="926" y="750" type="line"/>
    </contour>
  </outline>
</glyph>
<glyph name="increment" format="2">
  <advance width="1586"/>
  <unicode hex="2206"/>
  <outline>
    <contour>
      <point x="90" y="0" type="line"/>
      <point x="1492" y="0" type="line"/>
      <point x="1508" y="26" type="line"/>
      <point x="790" y="1472" type="line"/>
      <point x="750" y="1472" type="line"/>
      <point x="76" y="22" type="line"/>
    </contour>
    <contour>
      <point x="500" y="284" type="line"/>
      <point x="764" y="872" type="line"/>
      <point x="1046" y="284" type="line"/>
    </contour>
  </outline>
</glyph>
<glyph name="product" format="2">
  <advance width="1676"/>
  <unicode hex="220F"/>
  <outline>
    <contour>
      <point x="656" y="-168" type="line"/>
      <point x="656" y="1232" type="line"/>
      <point x="638" y="1216" type="line"/>
      <point x="1030" y="1216" type="line"/>
      <point x="1014" y="1232" type="line"/>
      <point x="1014" y="-168" type="line"/>
      <point x="1382" y="-168" type="line"/>
      <point x="1382" y="1230" type="line"/>
      <point x="1366" y="1216" type="line"/>
      <point x="1608" y="1216" type="line"/>
      <point x="1608" y="1486" type="line"/>
      <point x="68" y="1486" type="line"/>
      <point x="68" y="1216" type="line"/>
      <point x="304" y="1216" type="line"/>
      <point x="288" y="1232" type="line"/>
      <point x="288" y="-168" type="line"/>
    </contour>
  </outline>
</glyph>
<glyph name="minus" format="2">
  <advance width="1326"/>
  <unicode hex="2212"/>
  <outline>
    <contour>
      <point x="248" y="612" type="line"/>
      <point x="1078" y="612" type="line"/>
      <point x="1078" y="882" type="line"/>
      <point x="248" y="882" type="line"/>
    </contour>
  </outline>
</glyph>
<glyph name="radical" format="2">
  <advance width="1608"/>
  <unicode hex="221A"/>
  <outline>
    <contour>
      <point x="686" y="-346" type="line"/>
      <point x="996" y="-346" type="line"/>
      <point x="1666" y="1826" type="line"/>
      <point x="1306" y="1826" type="line"/>
      <point x="812" y="-24" type="line"/>
      <point x="870" y="-22" type="line"/>
      <point x="628" y="700" type="line"/>
      <point x="374" y="700" type="line"/>
      <point x="96" y="562" type="line"/>
      <point x="220" y="288" type="line"/>
      <point x="382" y="370" type="line"/>
    </contour>
  </outline>
</glyph>
<glyph name="notequal" format="2">
  <advance width="1396"/>
  <unicode hex="2260"/>
  <outline>
    <contour>
      <point x="400" y="174" type="line"/>
      <point x="604" y="174" type="line"/>
      <point x="718" y="522" type="line"/>
      <point x="724" y="538" type="line"/>
      <point x="876" y="1006" type="line"/>
      <point x="884" y="1020" type="line"/>
      <point x="986" y="1314" type="line"/>
      <point x="780" y="1314" type="line"/>
      <point x="686" y="1020" type="line"/>
      <point x="678" y="1006" type="line"/>
      <point x="524" y="538" type="line"/>
      <point x="518" y="524" type="line"/>
    </contour>
    <component base="equal"/>
  </outline>
</glyph>
<glyph name="lessequal" format="2">
  <advance width="1344"/>
  <unicode hex="2264"/>
  <outline>
    <contour>
      <point x="164" y="-2" type="line"/>
      <point x="1110" y="-2" type="line"/>
      <point x="1110" y="228" type="line"/>
      <point x="164" y="228" type="line"/>
    </contour>
    <contour>
      <point x="1110" y="304" type="line"/>
      <point x="1110" y="590" type="line"/>
      <point x="546" y="792" type="line"/>
      <point x="546" y="778" type="line"/>
      <point x="1110" y="984" type="line"/>
      <point x="1110" y="1280" type="line"/>
      <point x="164" y="870" type="line"/>
      <point x="164" y="710" type="line"/>
    </contour>
  </outline>
</glyph>
<glyph name=".notdef" format="2">
  <advance width="1834"/>
  <outline>
    <contour>
      <point x="226" y="0" type="line"/>
      <point x="1608" y="0" type="line"/>
      <point x="1608" y="1382" type="line"/>
      <point x="226" y="1382" type="line"/>
    </contour>
    <contour>
      <point x="576" y="214" type="line"/>
      <point x="450" y="354" type="line"/>
      <point x="800" y="688" type="line"/>
      <point x="450" y="1042" type="line"/>
      <point x="570" y="1166" type="line"/>
      <point x="918" y="806" type="line"/>
      <point x="1262" y="1164" type="line"/>
      <point x="1386" y="1042" type="line"/>
      <point x="1032" y="692" type="line"/>
      <point x="1386" y="334" type="line"/>
      <point x="1268" y="214" type="line"/>
      <point x="914" y="574" type="line"/>
    </contour>
  </outline>
</glyph>
<glyph name="acutecomb.case" format="2">
  <anchor x="0" y="1660" name="_top"/>
  <anchor x="0" y="2086" name="top"/>
  <outline>
    <contour>
      <point x="-20" y="1598" type="line"/>
      <point x="68" y="1626"/>
      <point x="240" y="1794"/>
      <point x="322" y="1914" type="curve"/>
      <point x="66" y="2042" type="line"/>
      <point x="40" y="1964"/>
      <point x="-148" y="1766"/>
      <point x="-188" y="1726" type="curve"/>
    </contour>
  </outline>
</glyph>
<glyph name="b.sc" format="2">
  <advance width="1376"/>
  <anchor x="674" y="0" name="bottom"/>
  <anchor x="792" y="-144" name="btm"/>
  <anchor x="674" y="1800" name="top"/>
  <outline>
    <contour>
      <point x="140" y="0" type="line"/>
      <point x="330" y="0" type="line"/>
      <point x="416" y="-4"/>
      <point x="576" y="-12"/>
      <point x="704" y="-12" type="curve" smooth="yes"/>
      <point x="1162" y="-12"/>
      <point x="1296" y="156"/>
      <point x="1296" y="392" type="curve" smooth="yes"/>
      <point x="1296" y="562"/>
      <point x="1166" y="656"/>
      <point x="1008" y="678" type="curve"/>
      <point x="1152" y="714"/>
      <point x="1224" y="820"/>
      <point x="1224" y="962" type="curve" smooth="yes"/>
      <point x="1224" y="1174"/>
      <point x="1072" y="1306"/>
      <point x="666" y="1306" type="curve" smooth="yes"/>
      <point x="518" y="1306"/>
      <point x="422" y="1292"/>
      <point x="324" y="1292" type="curve"/>
      <point x="140" y="1294" type="line"/>
    </contour>
    <contour>
      <point x="514" y="780" type="curve"/>
      <point x="514" y="1046" type="line"/>
      <point x="530" y="1054"/>
      <point x="606" y="1054"/>
      <point x="628" y="1054" type="curve" smooth="yes"/>
      <point x="778" y="1054"/>
      <point x="864" y="1030"/>
      <point x="864" y="932" type="curve" smooth="yes"/>
      <point x="864" y="806"/>
      <point x="792" y="772"/>
      <point x="636" y="772" type="curve" smooth="yes"/>
      <point x="612" y="772"/>
      <point x="540" y="776"/>
    </contour>
    <contour>
      <point x="514" y="248" type="curve"/>
      <point x="514" y="538" type="line"/>
      <point x="532" y="542"/>
      <point x="620" y="546"/>
      <point x="666" y="546" type="curve" smooth="yes"/>
      <point x="842" y="546"/>
      <point x="912" y="490"/>
      <point x="912" y="400" type="curve" smooth="yes"/>
      <point x="912" y="280"/>
      <point x="836" y="228"/>
      <point x="680" y="228" type="curve" smooth="yes"/>
      <point x="622" y="228"/>
      <point x="536" y="236"/>
    </contour>
  </outline>
</glyph>
<glyph name="breve.case" format="2">
  <advance width="806"/>
  <anchor x="404" y="1662" name="_top"/>
  <outline>
    <contour>
      <point x="404" y="1558" type="curve" smooth="yes"/>
      <point x="646" y="1558"/>
      <point x="780" y="1702"/>
      <point x="778" y="1918" type="curve"/>
      <point x="564" y="1918" type="line"/>
      <point x="556" y="1872"/>
      <point x="538" y="1782"/>
      <point x="404" y="1782" type="curve" smooth="yes"/>
      <point x="268" y="1782"/>
      <point x="250" y="1872"/>
      <point x="246" y="1918" type="curve"/>
      <point x="28" y="1918" type="line"/>
      <point x="24" y="1702"/>
      <point x="150" y="1558"/>
    </contour>
  </outline>
</glyph>
<glyph name="brevecomb_acutecomb.case" format="2">
  <anchor x="0" y="1660" name="_top"/>
  <anchor x="24" y="2354" name="top"/>
  <outline>
    <contour>
      <point x="26" y="1558" type="curve" smooth="yes"/>
      <point x="268" y="1558"/>
      <point x="402" y="1702"/>
      <point x="400" y="1918" type="curve"/>
      <point x="186" y="1918" type="line"/>
      <point x="178" y="1872"/>
      <point x="160" y="1782"/>
      <point x="26" y="1782" type="curve" smooth="yes"/>
      <point x="-110" y="1782"/>
      <point x="-128" y="1872"/>
      <point x="-132" y="1918" type="curve"/>
      <point x="-350" y="1918" type="line"/>
      <point x="-354" y="1702"/>
      <point x="-228" y="1558"/>
    </contour>
    <contour>
      <point x="0" y="1910" type="line"/>
      <point x="88" y="1938"/>
      <point x="260" y="2106"/>
      <point x="342" y="2226" type="curve"/>
      <point x="86" y="2354" type="line"/>
      <point x="60" y="2276"/>
      <point x="-128" y="2078"/>
      <point x="-168" y="2038" type="curve"/>
    </contour>
  </outline>
</glyph>
<glyph name="brevecomb_hookabovecomb.case" format="2">
  <anchor x="0" y="1660" name="_top"/>
  <anchor x="28" y="2382" name="top"/>
  <outline>
    <contour>
      <point x="26" y="1558" type="curve" smooth="yes"/>
      <point x="268" y="1558"/>
      <point x="402" y="1702"/>
      <point x="400" y="1918" type="curve"/>
      <point x="186" y="1918" type="line"/>
      <point x="178" y="1872"/>
      <point x="160" y="1782"/>
      <point x="26" y="1782" type="curve" smooth="yes"/>
      <point x="-110" y="1782"/>
      <point x="-128" y="1872"/>
      <point x="-132" y="1918" type="curve"/>
      <point x="-350" y="1918" type="line"/>
      <point x="-354" y="1702"/>
      <point x="-228" y="1558"/>
    </contour>
    <contour>
      <point x="-60" y="1952" type="curve"/>
      <point x="116" y="1952" type="line"/>
      <point x="102" y="2010"/>
      <point x="116" y="2062"/>
      <point x="156" y="2092" type="curve" smooth="yes"/>
      <point x="204" y="2128"/>
      <point x="264" y="2192"/>
      <point x="264" y="2278" type="curve" smooth="yes"/>
      <point x="264" y="2384"/>
      <point x="142" y="2464"/>
      <point x="-18" y="2464" type="curve" smooth="yes"/>
      <point x="-110" y="2464"/>
      <point x="-176" y="2446"/>
      <point x="-220" y="2424" type="curve"/>
      <point x="-216" y="2262" type="line"/>
      <point x="-192" y="2280"/>
      <point x="-144" y="2298"/>
      <point x="-94" y="2298" type="curve" smooth="yes"/>
      <point x="-14" y="2298"/>
      <point x="8" y="2264"/>
      <point x="8" y="2224" type="curve" smooth="yes"/>
      <point x="8" y="2148"/>
      <point x="-86" y="2130"/>
      <point x="-86" y="2040" type="curve"/>
      <point x="-86" y="2000"/>
      <point x="-76" y="1980"/>
    </contour>
  </outline>
</glyph>
<glyph name="brevecomb_tildecomb.case" format="2">
  <anchor x="0" y="1660" name="_top"/>
  <anchor x="24" y="2516" name="top"/>
  <outline>
    <contour>
      <point x="26" y="1598" type="curve" smooth="yes"/>
      <point x="254" y="1598"/>
      <point x="380" y="1738"/>
      <point x="378" y="1928" type="curve"/>
      <point x="176" y="1928" type="line"/>
      <point x="170" y="1882"/>
      <point x="152" y="1796"/>
      <point x="26" y="1796" type="curve" smooth="yes"/>
      <point x="-102" y="1796"/>
      <point x="-120" y="1882"/>
      <point x="-122" y="1928" type="curve"/>
      <point x="-328" y="1928" type="line"/>
      <point x="-332" y="1738"/>
      <point x="-214" y="1598"/>
    </contour>
    <contour>
      <point x="142" y="2034" type="curve" smooth="yes"/>
      <point x="248" y="2034"/>
      <point x="364" y="2138"/>
      <point x="364" y="2284" type="curve"/>
      <point x="252" y="2324" type="line"/>
      <point x="224" y="2248"/>
      <point x="190" y="2230"/>
      <point x="148" y="2230" type="curve" smooth="yes"/>
      <point x="72" y="2230"/>
      <point x="24" y="2356"/>
      <point x="-102" y="2356" type="curve" smooth="yes"/>
      <point x="-208" y="2356"/>
      <point x="-324" y="2254"/>
      <point x="-324" y="2108" type="curve"/>
      <point x="-212" y="2068" type="line"/>
      <point x="-184" y="2138"/>
      <point x="-154" y="2162"/>
      <point x="-108" y="2162" type="curve" smooth="yes"/>
      <point x="-30" y="2162"/>
      <point x="16" y="2034"/>
    </contour>
  </outline>
</glyph>
<glyph name="c.sc" format="2">
  <advance width="1264"/>
  <anchor x="614" y="0" name="bottom"/>
  <anchor x="742" y="-144" name="btm"/>
  <anchor x="778" y="1792" name="top"/>
  <outline>
    <contour>
      <point x="80" y="646" type="curve" smooth="yes"/>
      <point x="80" y="242"/>
      <point x="342" y="-14"/>
      <point x="786" y="-14" type="curve" smooth="yes"/>
      <point x="946" y="-14"/>
      <point x="1062" y="26"/>
      <point x="1134" y="54" type="curve"/>
      <point x="1134" y="360" type="line"/>
      <point x="1088" y="326"/>
      <point x="948" y="276"/>
      <point x="830" y="276" type="curve" smooth="yes"/>
      <point x="602" y="276"/>
      <point x="468" y="430"/>
      <point x="468" y="666" type="curve" smooth="yes"/>
      <point x="468" y="896"/>
      <point x="638" y="1012"/>
      <point x="812" y="1012" type="curve" smooth="yes"/>
      <point x="982" y="1012"/>
      <point x="1068" y="958"/>
      <point x="1106" y="932" type="curve"/>
      <point x="1154" y="1254" type="line"/>
      <point x="1060" y="1272"/>
      <point x="974" y="1306"/>
      <point x="782" y="1306" type="curve" smooth="yes"/>
      <point x="404" y="1306"/>
      <point x="80" y="1088"/>
    </contour>
  </outline>
</glyph>
<glyph name="caroncomb.case" format="2">
  <anchor x="0" y="1660" name="_top"/>
  <anchor x="0" y="2106" name="top"/>
  <outline>
    <contour>
      <point x="-114" y="1608" type="line"/>
      <point x="114" y="1608" type="line"/>
      <point x="390" y="1892" type="line"/>
      <point x="220" y="2004" type="line"/>
      <point x="0" y="1840" type="line"/>
      <point x="-218" y="2004" type="line"/>
      <point x="-390" y="1892" type="line"/>
    </contour>
  </outline>
</glyph>
<glyph name="circumflexcomb_hookabovecomb" format="2">
  <anchor x="0" y="1660" name="_top"/>
  <anchor x="100" y="1994" name="top"/>
  <outline>
    <contour>
      <point x="-234" y="1234" type="line"/>
      <point x="0" y="1392" type="line"/>
      <point x="234" y="1234" type="line"/>
      <point x="406" y="1334" type="line"/>
      <point x="110" y="1642" type="line"/>
      <point x="-108" y="1642" type="line"/>
      <point x="-406" y="1334" type="line"/>
    </contour>
    <contour>
      <point x="312" y="1542" type="curve"/>
      <point x="496" y="1542" type="line"/>
      <point x="484" y="1592"/>
      <point x="496" y="1638"/>
      <point x="534" y="1666" type="curve" smooth="yes"/>
      <point x="578" y="1698"/>
      <point x="606" y="1754"/>
      <point x="606" y="1830" type="curve" smooth="yes"/>
      <point x="606" y="1924"/>
      <point x="490" y="1994"/>
      <point x="340" y="1994" type="curve" smooth="yes"/>
      <point x="254" y="1994"/>
      <point x="192" y="1978"/>
      <point x="150" y="1960" type="curve"/>
      <point x="154" y="1794" type="line"/>
      <point x="176" y="1810"/>
      <point x="222" y="1826"/>
      <point x="268" y="1826" type="curve" smooth="yes"/>
      <point x="344" y="1826"/>
      <point x="364" y="1796"/>
      <point x="364" y="1760" type="curve" smooth="yes"/>
      <point x="364" y="1694"/>
      <point x="288" y="1698"/>
      <point x="288" y="1620" type="curve" smooth="yes"/>
      <point x="288" y="1584"/>
      <point x="298" y="1566"/>
    </contour>
  </outline>
</glyph>
<glyph name="dblgravecomb.case" format="2">
  <anchor x="-60" y="1660" name="_top"/>
  <anchor x="44" y="2032" name="top"/>
  <outline>
    <contour>
      <point x="198" y="1616" type="curve"/>
      <point x="372" y="1740" type="line"/>
      <point x="332" y="1778"/>
      <point x="192" y="1960"/>
      <point x="158" y="2038" type="curve"/>
      <point x="-94" y="1922" type="line"/>
      <point x="-14" y="1800"/>
      <point x="134" y="1644"/>
    </contour>
    <contour>
      <point x="-310" y="1616" type="curve"/>
      <point x="-132" y="1740" type="line"/>
      <point x="-172" y="1778"/>
      <point x="-316" y="1960"/>
      <point x="-352" y="2036" type="curve"/>
      <point x="-602" y="1920" type="line"/>
      <point x="-526" y="1804"/>
      <point x="-376" y="1644"/>
    </contour>
  </outline>
</glyph>
<glyph name="dieresiscomb.case" format="2">
  <anchor x="0" y="1660" name="_top"/>
  <anchor x="0" y="2106" name="top"/>
  <outline>
    <contour>
      <point x="-270" y="1626" type="curve" smooth="yes"/>
      <point x="-160" y="1626"/>
      <point x="-78" y="1710"/>
      <point x="-78" y="1814" type="curve" smooth="yes"/>
      <point x="-78" y="1916"/>
      <point x="-144" y="1984"/>
      <point x="-254" y="1984" type="curve" smooth="yes"/>
      <point x="-362" y="1984"/>
      <point x="-448" y="1902"/>
      <point x="-448" y="1798" type="curve" smooth="yes"/>
      <point x="-448" y="1696"/>
      <point x="-378" y="1626"/>
    </contour>
    <contour>
      <point x="256" y="1626" type="curve" smooth="yes"/>
      <point x="366" y="1626"/>
      <point x="448" y="1710"/>
      <point x="448" y="1814" type="curve" smooth="yes"/>
      <point x="448" y="1916"/>
      <point x="384" y="1984"/>
      <point x="274" y="1984" type="curve" smooth="yes"/>
      <point x="164" y="1984"/>
      <point x="78" y="1902"/>
      <point x="78" y="1798" type="curve" smooth="yes"/>
      <point x="78" y="1696"/>
      <point x="150" y="1626"/>
    </contour>
  </outline>
</glyph>
<glyph name="dotbelowcomb.case" format="2">
  <anchor x="0" y="0" name="_bottom"/>
  <anchor x="0" y="-166" name="_btm"/>
  <anchor x="0" y="-486" name="bottom"/>
  <outline>
    <contour>
      <point x="-8" y="-522" type="curve" smooth="yes"/>
      <point x="112" y="-522"/>
      <point x="208" y="-430"/>
      <point x="208" y="-320" type="curve" smooth="yes"/>
      <point x="208" y="-210"/>
      <point x="128" y="-134"/>
      <point x="10" y="-134" type="curve" smooth="yes"/>
      <point x="-108" y="-134"/>
      <point x="-208" y="-226"/>
      <point x="-208" y="-336" type="curve" smooth="yes"/>
      <point x="-208" y="-444"/>
      <point x="-124" y="-522"/>
    </contour>
  </outline>
</glyph>
<glyph name="eight.dnom" format="2">
  <advance width="1046"/>
  <outline>
    <contour>
      <point x="530" y="-12" type="curve" smooth="yes"/>
      <point x="780" y="-12"/>
      <point x="960" y="108"/>
      <point x="958" y="314" type="curve" smooth="yes"/>
      <point x="956" y="626"/>
      <point x="386" y="650"/>
      <point x="386" y="852" type="curve" smooth="yes"/>
      <point x="386" y="904"/>
      <point x="442" y="950"/>
      <point x="518" y="950" type="curve" smooth="yes"/>
      <point x="608" y="950"/>
      <point x="660" y="900"/>
      <point x="662" y="854" type="curve" smooth="yes"/>
      <point x="666" y="774"/>
      <point x="620" y="706"/>
      <point x="512" y="674" type="curve"/>
      <point x="606" y="562" type="line"/>
      <point x="816" y="600"/>
      <point x="910" y="740"/>
      <point x="910" y="868" type="curve" smooth="yes"/>
      <point x="910" y="1020"/>
      <point x="772" y="1130"/>
      <point x="516" y="1130" type="curve" smooth="yes"/>
      <point x="256" y="1130"/>
      <point x="122" y="994"/>
      <point x="122" y="832" type="curve" smooth="yes"/>
      <point x="122" y="454"/>
      <point x="674" y="462"/>
      <point x="674" y="286" type="curve" smooth="yes"/>
      <point x="674" y="214"/>
      <point x="608" y="168"/>
      <point x="528" y="168" type="curve" smooth="yes"/>
      <point x="402" y="168"/>
      <point x="356" y="250"/>
      <point x="356" y="304" type="curve" smooth="yes"/>
      <point x="356" y="400"/>
      <point x="424" y="448"/>
      <point x="514" y="488" type="curve"/>
      <point x="412" y="606" type="line"/>
      <point x="162" y="526"/>
      <point x="88" y="398"/>
      <point x="88" y="290" type="curve" smooth="yes"/>
      <point x="88" y="108"/>
      <point x="248" y="-12"/>
    </contour>
  </outline>
</glyph>
<glyph name="eight.osf" format="2">
  <advance width="1386"/>
  <outline>
    <contour>
      <point x="704" y="-16" type="curve" smooth="yes"/>
      <point x="1028" y="-16"/>
      <point x="1270" y="142"/>
      <point x="1266" y="416" type="curve" smooth="yes"/>
      <point x="1262" y="846"/>
      <point x="502" y="876"/>
      <point x="502" y="1166" type="curve" smooth="yes"/>
      <point x="502" y="1242"/>
      <point x="574" y="1308"/>
      <point x="692" y="1308" type="curve" smooth="yes"/>
      <point x="814" y="1308"/>
      <point x="882" y="1246"/>
      <point x="882" y="1160" type="curve" smooth="yes"/>
      <point x="886" y="1042"/>
      <point x="828" y="940"/>
      <point x="684" y="896" type="curve"/>
      <point x="806" y="756" type="line"/>
      <point x="1090" y="820"/>
      <point x="1200" y="1000"/>
      <point x="1200" y="1174" type="curve" smooth="yes"/>
      <point x="1200" y="1378"/>
      <point x="1022" y="1528"/>
      <point x="686" y="1528" type="curve" smooth="yes"/>
      <point x="350" y="1528"/>
      <point x="166" y="1352"/>
      <point x="166" y="1136" type="curve" smooth="yes"/>
      <point x="166" y="632"/>
      <point x="902" y="646"/>
      <point x="902" y="378" type="curve" smooth="yes"/>
      <point x="902" y="282"/>
      <point x="810" y="222"/>
      <point x="700" y="222" type="curve" smooth="yes"/>
      <point x="528" y="222"/>
      <point x="460" y="306"/>
      <point x="460" y="404" type="curve" smooth="yes"/>
      <point x="460" y="538"/>
      <point x="548" y="608"/>
      <point x="670" y="664" type="curve"/>
      <point x="546" y="812" type="line"/>
      <point x="232" y="722"/>
      <point x="120" y="558"/>
      <point x="120" y="388" type="curve" smooth="yes"/>
      <point x="120" y="142"/>
      <point x="338" y="-16"/>
    </contour>
  </outline>
</glyph>
<glyph name="eight.tf" format="2">
  <advance width="1360"/>
  <outline>
    <contour>
      <point x="694" y="-16" type="curve" smooth="yes"/>
      <point x="1018" y="-16"/>
      <point x="1256" y="142"/>
      <point x="1254" y="416" type="curve" smooth="yes"/>
      <point x="1250" y="850"/>
      <point x="496" y="860"/>
      <point x="496" y="1150" type="curve" smooth="yes"/>
      <point x="496" y="1224"/>
      <point x="566" y="1300"/>
      <point x="684" y="1300" type="curve" smooth="yes"/>
      <point x="802" y="1300"/>
      <point x="870" y="1230"/>
      <point x="870" y="1144" type="curve" smooth="yes"/>
      <point x="870" y="1022"/>
      <point x="814" y="932"/>
      <point x="674" y="890" type="curve"/>
      <point x="796" y="750" type="line"/>
      <point x="1084" y="814"/>
      <point x="1188" y="988"/>
      <point x="1188" y="1158" type="curve" smooth="yes"/>
      <point x="1188" y="1362"/>
      <point x="1010" y="1512"/>
      <point x="676" y="1512" type="curve" smooth="yes"/>
      <point x="342" y="1512"/>
      <point x="160" y="1336"/>
      <point x="160" y="1120" type="curve" smooth="yes"/>
      <point x="160" y="614"/>
      <point x="890" y="638"/>
      <point x="890" y="378" type="curve" smooth="yes"/>
      <point x="890" y="282"/>
      <point x="798" y="196"/>
      <point x="690" y="196" type="curve" smooth="yes"/>
      <point x="522" y="196"/>
      <point x="454" y="306"/>
      <point x="454" y="404" type="curve" smooth="yes"/>
      <point x="454" y="526"/>
      <point x="534" y="598"/>
      <point x="662" y="656" type="curve"/>
      <point x="538" y="806" type="line"/>
      <point x="230" y="716"/>
      <point x="114" y="554"/>
      <point x="114" y="388" type="curve" smooth="yes"/>
      <point x="114" y="142"/>
      <point x="330" y="-16"/>
    </contour>
  </outline>
</glyph>
<glyph name="eng.sc" format="2">
  <advance width="1494"/>
  <outline>
    <contour>
      <point x="490" y="0" type="line"/>
      <point x="490" y="464" type="line"/>
      <point x="400" y="1092" type="line"/>
      <point x="322" y="1092" type="line"/>
      <point x="540" y="640" type="line"/>
      <point x="980" y="-2" type="line"/>
      <point x="980" y="-134"/>
      <point x="822" y="-242"/>
      <point x="660" y="-284" type="curve"/>
      <point x="732" y="-420" type="line"/>
      <point x="1030" y="-428"/>
      <point x="1250" y="-282"/>
      <point x="1310" y="-136" type="curve" smooth="yes"/>
      <point x="1354" y="-28"/>
      <point x="1354" y="30"/>
      <point x="1354" y="198" type="curve" smooth="yes"/>
      <point x="1354" y="1292" type="line"/>
      <point x="1006" y="1292" type="line"/>
      <point x="1006" y="824" type="line"/>
      <point x="1070" y="280" type="line"/>
      <point x="1138" y="280" type="line"/>
      <point x="954" y="640" type="line"/>
      <point x="500" y="1292" type="line"/>
      <point x="140" y="1292" type="line"/>
      <point x="140" y="0" type="line"/>
    </contour>
  </outline>
</glyph>
<glyph name="five.tf" format="2">
  <advance width="1360"/>
  <outline>
    <contour>
      <point x="336" y="-18" type="curve" smooth="yes"/>
      <point x="872" y="-18"/>
      <point x="1212" y="188"/>
      <point x="1212" y="542" type="curve" smooth="yes"/>
      <point x="1212" y="810"/>
      <point x="1048" y="974"/>
      <point x="752" y="974" type="curve" smooth="yes"/>
      <point x="674" y="974"/>
      <point x="586" y="960"/>
      <point x="492" y="934" type="curve"/>
      <point x="524" y="1194" type="line"/>
      <point x="1136" y="1194" type="line"/>
      <point x="1168" y="1488" type="line"/>
      <point x="264" y="1488" type="line"/>
      <point x="198" y="686" type="line"/>
      <point x="260" y="650" type="line"/>
      <point x="356" y="682"/>
      <point x="472" y="716"/>
      <point x="564" y="716" type="curve" smooth="yes"/>
      <point x="762" y="716"/>
      <point x="840" y="650"/>
      <point x="840" y="528" type="curve" smooth="yes"/>
      <point x="840" y="342"/>
      <point x="622" y="242"/>
      <point x="270" y="242" type="curve" smooth="yes"/>
      <point x="246" y="242"/>
      <point x="214" y="242"/>
      <point x="186" y="244" type="curve"/>
      <point x="186" y="-4" type="line"/>
      <point x="228" y="-14"/>
      <point x="300" y="-18"/>
    </contour>
  </outline>
</glyph>
<glyph name="five.tosf" format="2">
  <advance width="1354"/>
  <outline>
    <contour>
      <point x="336" y="-356" type="curve" smooth="yes"/>
      <point x="870" y="-356"/>
      <point x="1208" y="-116"/>
      <point x="1208" y="238" type="curve" smooth="yes"/>
      <point x="1208" y="506"/>
      <point x="1046" y="670"/>
      <point x="750" y="670" type="curve" smooth="yes"/>
      <point x="672" y="670"/>
      <point x="586" y="656"/>
      <point x="492" y="630" type="curve"/>
      <point x="524" y="930" type="line"/>
      <point x="1132" y="930" type="line"/>
      <point x="1164" y="1224" type="line"/>
      <point x="264" y="1224" type="line"/>
      <point x="198" y="380" type="line"/>
      <point x="260" y="346" type="line"/>
      <point x="362" y="380"/>
      <point x="474" y="410"/>
      <point x="562" y="410" type="curve" smooth="yes"/>
      <point x="760" y="410"/>
      <point x="838" y="346"/>
      <point x="838" y="224" type="curve" smooth="yes"/>
      <point x="838" y="38"/>
      <point x="622" y="-96"/>
      <point x="270" y="-96" type="curve" smooth="yes"/>
      <point x="242" y="-96"/>
      <point x="214" y="-96"/>
      <point x="186" y="-94" type="curve"/>
      <point x="186" y="-342" type="line"/>
      <point x="226" y="-352"/>
      <point x="296" y="-356"/>
    </contour>
  </outline>
</glyph>
<glyph name="four.dnom" format="2">
  <advance width="1092"/>
  <outline>
    <contour>
      <point x="108" y="222" type="line"/>
      <point x="1032" y="222" type="line"/>
      <point x="1032" y="428" type="line"/>
      <point x="346" y="428" type="line"/>
      <point x="404" y="524" type="line"/>
      <point x="514" y="718"/>
      <point x="640" y="920"/>
      <point x="750" y="1114" type="curve"/>
      <point x="416" y="1114" type="line"/>
      <point x="294" y="818"/>
      <point x="182" y="618"/>
      <point x="40" y="332" type="curve"/>
    </contour>
    <contour>
      <point x="590" y="0" type="line"/>
      <point x="860" y="0" type="line"/>
      <point x="860" y="750" type="line"/>
      <point x="628" y="750" type="line"/>
      <point x="590" y="502" type="line"/>
    </contour>
  </outline>
</glyph>
<glyph name="four.sc" format="2">
  <advance width="1358"/>
  <outline>
    <contour>
      <point x="154" y="206" type="line"/>
      <point x="1304" y="206" type="line"/>
      <point x="1304" y="452" type="line"/>
      <point x="434" y="452" type="line"/>
      <point x="560" y="648" type="line"/>
      <point x="678" y="854"/>
      <point x="766" y="1020"/>
      <point x="902" y="1252" type="curve"/>
      <point x="672" y="1378" type="line"/>
      <point x="564" y="1378" type="line"/>
      <point x="448" y="1134"/>
      <point x="220" y="608"/>
      <point x="74" y="322" type="curve"/>
    </contour>
    <contour>
      <point x="772" y="0" type="line"/>
      <point x="1096" y="0" type="line"/>
      <point x="1096" y="794" type="line"/>
      <point x="806" y="794" type="line"/>
      <point x="772" y="450" type="line"/>
    </contour>
  </outline>
</glyph>
<glyph name="four.tf" format="2">
  <advance width="1360"/>
  <outline>
    <contour>
      <point x="144" y="296" type="line"/>
      <point x="1314" y="296" type="line"/>
      <point x="1314" y="552" type="line"/>
      <point x="438" y="552" type="line"/>
      <point x="546" y="730" type="line"/>
      <point x="676" y="982"/>
      <point x="758" y="1116"/>
      <point x="888" y="1368" type="curve"/>
      <point x="644" y="1502" type="line"/>
      <point x="532" y="1502" type="line"/>
      <point x="82" y="478"/>
      <point x="216" y="778"/>
      <point x="60" y="424" type="curve"/>
    </contour>
    <contour>
      <point x="766" y="0" type="line"/>
      <point x="1106" y="0" type="line"/>
      <point x="1106" y="932" type="line"/>
      <point x="802" y="932" type="line"/>
      <point x="766" y="554" type="line"/>
    </contour>
  </outline>
</glyph>
<glyph name="hbar.sc" format="2">
  <advance width="1558"/>
  <outline>
    <contour>
      <point x="164" y="0" type="line"/>
      <point x="542" y="0" type="line"/>
      <point x="542" y="454" type="line"/>
      <point x="1016" y="454" type="line"/>
      <point x="1016" y="0" type="line"/>
      <point x="1394" y="0" type="line"/>
      <point x="1394" y="1292" type="line"/>
      <point x="1016" y="1292" type="line"/>
      <point x="1016" y="712" type="line"/>
      <point x="542" y="712" type="line"/>
      <point x="542" y="1292" type="line"/>
      <point x="164" y="1292" type="line"/>
    </contour>
    <contour>
      <point x="34" y="868" type="line"/>
      <point x="1528" y="868" type="line"/>
      <point x="1528" y="1082" type="line"/>
      <point x="34" y="1082" type="line"/>
    </contour>
  </outline>
</glyph>
<glyph name="hookabovecomb.case" format="2">
  <anchor x="0" y="1674" name="_top"/>
  <anchor x="0" y="1980" name="top"/>
  <outline>
    <contour>
      <point x="-90" y="1628" type="curve"/>
      <point x="92" y="1628" type="line"/>
      <point x="78" y="1686"/>
      <point x="92" y="1738"/>
      <point x="132" y="1768" type="curve" smooth="yes"/>
      <point x="180" y="1804"/>
      <point x="236" y="1868"/>
      <point x="236" y="1954" type="curve" smooth="yes"/>
      <point x="236" y="2060"/>
      <point x="132" y="2140"/>
      <point x="-20" y="2140" type="curve" smooth="yes"/>
      <point x="-138" y="2140"/>
      <point x="-204" y="2122"/>
      <point x="-248" y="2100" type="curve"/>
      <point x="-244" y="1926" type="line"/>
      <point x="-220" y="1944"/>
      <point x="-172" y="1962"/>
      <point x="-122" y="1962" type="curve" smooth="yes"/>
      <point x="-42" y="1962"/>
      <point x="-20" y="1928"/>
      <point x="-20" y="1888" type="curve" smooth="yes"/>
      <point x="-20" y="1812"/>
      <point x="-116" y="1806"/>
      <point x="-116" y="1716" type="curve" smooth="yes"/>
      <point x="-116" y="1676"/>
      <point x="-106" y="1656"/>
    </contour>
  </outline>
</glyph>
<glyph name="hungarumlautcomb.case" format="2">
  <anchor x="408" y="1662" name="_top"/>
  <anchor x="528" y="1918" name="top"/>
  <outline>
    <contour>
      <point x="214" y="1496" type="line"/>
      <point x="278" y="1524"/>
      <point x="426" y="1680"/>
      <point x="506" y="1802" type="curve"/>
      <point x="254" y="1918" type="line"/>
      <point x="220" y="1840"/>
      <point x="80" y="1658"/>
      <point x="40" y="1620" type="curve"/>
    </contour>
    <contour>
      <point x="722" y="1496" type="line"/>
      <point x="788" y="1524"/>
      <point x="938" y="1684"/>
      <point x="1014" y="1800" type="curve"/>
      <point x="764" y="1916" type="line"/>
      <point x="728" y="1840"/>
      <point x="584" y="1658"/>
      <point x="544" y="1620" type="curve"/>
    </contour>
  </outline>
</glyph>
<glyph name="macroncomb.case" format="2">
  <anchor x="0" y="1660" name="_top"/>
  <anchor x="0" y="2026" name="top"/>
  <outline>
    <contour>
      <point x="-302" y="1636" type="line"/>
      <point x="302" y="1636" type="line"/>
      <point x="302" y="1864" type="line"/>
      <point x="-302" y="1864" type="line"/>
    </contour>
  </outline>
</glyph>
<glyph name="nine.osf" format="2">
  <advance width="1420"/>
  <outline>
    <contour>
      <point x="120" y="682" type="curve" smooth="yes"/>
      <point x="120" y="408"/>
      <point x="292" y="202"/>
      <point x="540" y="202" type="curve" smooth="yes"/>
      <point x="712" y="202"/>
      <point x="820" y="268"/>
      <point x="848" y="306" type="curve"/>
      <point x="784" y="494" type="line"/>
      <point x="754" y="484"/>
      <point x="728" y="470"/>
      <point x="656" y="470" type="curve" smooth="yes"/>
      <point x="556" y="470"/>
      <point x="478" y="552"/>
      <point x="478" y="750" type="curve" smooth="yes"/>
      <point x="478" y="902"/>
      <point x="556" y="992"/>
      <point x="694" y="992" type="curve" smooth="yes"/>
      <point x="860" y="992"/>
      <point x="928" y="812"/>
      <point x="926" y="544" type="curve" smooth="yes"/>
      <point x="922" y="256"/>
      <point x="716" y="-106"/>
      <point x="334" y="-200" type="curve"/>
      <point x="420" y="-406" type="line"/>
      <point x="776" y="-362"/>
      <point x="1308" y="14"/>
      <point x="1308" y="618" type="curve"/>
      <point x="1308" y="986"/>
      <point x="1078" y="1240"/>
      <point x="736" y="1240" type="curve" smooth="yes"/>
      <point x="330" y="1240"/>
      <point x="120" y="1000"/>
    </contour>
  </outline>
</glyph>
<glyph name="nine.tf" format="2">
  <advance width="1360"/>
  <outline>
    <contour>
      <point x="108" y="982" type="curve" smooth="yes"/>
      <point x="108" y="708"/>
      <point x="276" y="500"/>
      <point x="512" y="500" type="curve" smooth="yes"/>
      <point x="676" y="500"/>
      <point x="782" y="566"/>
      <point x="808" y="604" type="curve"/>
      <point x="746" y="792" type="line"/>
      <point x="716" y="782"/>
      <point x="694" y="768"/>
      <point x="628" y="768" type="curve" smooth="yes"/>
      <point x="536" y="768"/>
      <point x="464" y="852"/>
      <point x="464" y="1050" type="curve" smooth="yes"/>
      <point x="464" y="1202"/>
      <point x="536" y="1260"/>
      <point x="664" y="1260" type="curve" smooth="yes"/>
      <point x="816" y="1260"/>
      <point x="880" y="1080"/>
      <point x="880" y="812" type="curve" smooth="yes"/>
      <point x="880" y="556"/>
      <point x="686" y="226"/>
      <point x="322" y="132" type="curve"/>
      <point x="406" y="-74" type="line"/>
      <point x="744" y="-30"/>
      <point x="1260" y="312"/>
      <point x="1260" y="918" type="curve"/>
      <point x="1260" y="1284"/>
      <point x="1034" y="1508"/>
      <point x="706" y="1508" type="curve" smooth="yes"/>
      <point x="312" y="1508"/>
      <point x="108" y="1266"/>
    </contour>
  </outline>
</glyph>
<glyph name="nine.tosf" format="2">
  <advance width="1354"/>
  <outline>
    <contour>
      <point x="108" y="688" type="curve" smooth="yes"/>
      <point x="108" y="412"/>
      <point x="276" y="206"/>
      <point x="510" y="206" type="curve" smooth="yes"/>
      <point x="676" y="206"/>
      <point x="782" y="272"/>
      <point x="808" y="310" type="curve"/>
      <point x="746" y="498" type="line"/>
      <point x="718" y="488"/>
      <point x="690" y="474"/>
      <point x="626" y="474" type="curve" smooth="yes"/>
      <point x="534" y="474"/>
      <point x="460" y="556"/>
      <point x="460" y="756" type="curve" smooth="yes"/>
      <point x="460" y="908"/>
      <point x="534" y="998"/>
      <point x="662" y="998" type="curve" smooth="yes"/>
      <point x="820" y="998"/>
      <point x="882" y="818"/>
      <point x="880" y="548" type="curve" smooth="yes"/>
      <point x="878" y="258"/>
      <point x="684" y="-102"/>
      <point x="320" y="-196" type="curve"/>
      <point x="402" y="-402" type="line"/>
      <point x="742" y="-358"/>
      <point x="1256" y="16"/>
      <point x="1256" y="624" type="curve"/>
      <point x="1256" y="992"/>
      <point x="1030" y="1246"/>
      <point x="704" y="1246" type="curve" smooth="yes"/>
      <point x="312" y="1246"/>
      <point x="108" y="1006"/>
    </contour>
  </outline>
</glyph>
<glyph name="oe.sc" format="2">
  <advance width="2040"/>
  <anchor x="1020" y="0" name="bottom"/>
  <anchor x="1004" y="-144" name="btm"/>
  <anchor x="1004" y="1444" name="top"/>
  <outline>
    <contour>
      <point x="94" y="652" type="curve" smooth="yes"/>
      <point x="86" y="256"/>
      <point x="320" y="-14"/>
      <point x="728" y="-14" type="curve" smooth="yes"/>
      <point x="878" y="-14"/>
      <point x="986" y="28"/>
      <point x="1034" y="74" type="curve"/>
      <point x="1016" y="420" type="line"/>
      <point x="980" y="300"/>
      <point x="896" y="268"/>
      <point x="766" y="268" type="curve" smooth="yes"/>
      <point x="586" y="268"/>
      <point x="480" y="372"/>
      <point x="480" y="644" type="curve" smooth="yes"/>
      <point x="480" y="1004"/>
      <point x="660" y="1016"/>
      <point x="790" y="1016" type="curve" smooth="yes"/>
      <point x="910" y="1016"/>
      <point x="980" y="946"/>
      <point x="1014" y="872" type="curve"/>
      <point x="1032" y="1218" type="line"/>
      <point x="988" y="1264"/>
      <point x="902" y="1306"/>
      <point x="766" y="1306" type="curve" smooth="yes"/>
      <point x="400" y="1306"/>
      <point x="104" y="1108"/>
    </contour>
    <contour>
      <point x="990" y="0" type="line"/>
      <point x="1950" y="0" type="line"/>
      <point x="1950" y="286" type="line"/>
      <point x="1360" y="286" type="line"/>
      <point x="1360" y="526" type="line"/>
      <point x="1762" y="526" type="line"/>
      <point x="1762" y="798" type="line"/>
      <point x="1360" y="798" type="line"/>
      <point x="1360" y="1014" type="line"/>
      <point x="1896" y="1014" type="line"/>
      <point x="1896" y="1292" type="line"/>
      <point x="990" y="1292" type="line"/>
    </contour>
  </outline>
</glyph>
<glyph name="ogonekcomb.case" format="2">
  <anchor x="402" y="50" name="_ogonek"/>
  <outline>
    <contour>
      <point x="222" y="-446" type="curve" smooth="yes"/>
      <point x="314" y="-446"/>
      <point x="400" y="-422"/>
      <point x="454" y="-380" type="curve"/>
      <point x="452" y="-236" type="line"/>
      <point x="414" y="-244"/>
      <point x="370" y="-250"/>
      <point x="332" y="-250" type="curve" smooth="yes"/>
      <point x="266" y="-250"/>
      <point x="222" y="-232"/>
      <point x="218" y="-182" type="curve" smooth="yes"/>
      <point x="208" y="-68"/>
      <point x="326" y="16"/>
      <point x="440" y="88" type="curve"/>
      <point x="310" y="68" type="line"/>
      <point x="182" y="50" type="line"/>
      <point x="86" y="-6"/>
      <point x="-50" y="-110"/>
      <point x="-36" y="-276" type="curve" smooth="yes"/>
      <point x="-26" y="-394"/>
      <point x="96" y="-446"/>
    </contour>
  </outline>
</glyph>
<glyph name="omega.sc" format="2">
  <advance width="1648"/>
  <anchor x="820" y="0" name="bottom"/>
  <anchor x="-34" y="1292" name="topleft"/>
  <outline>
    <contour>
      <point x="728" y="206" type="line"/>
      <point x="642" y="250"/>
      <point x="526" y="410"/>
      <point x="526" y="696" type="curve" smooth="yes"/>
      <point x="526" y="976"/>
      <point x="660" y="1056"/>
      <point x="826" y="1056" type="curve" smooth="yes"/>
      <point x="980" y="1056"/>
      <point x="1112" y="974"/>
      <point x="1112" y="694" type="curve" smooth="yes"/>
      <point x="1112" y="408"/>
      <point x="1016" y="250"/>
      <point x="934" y="206" type="curve"/>
      <point x="934" y="0" type="line"/>
      <point x="938" y="0"/>
      <point x="1082" y="170"/>
      <point x="1088" y="170" type="curve"/>
      <point x="1292" y="230"/>
      <point x="1484" y="446"/>
      <point x="1488" y="720" type="curve" smooth="yes"/>
      <point x="1492" y="1132"/>
      <point x="1216" y="1308"/>
      <point x="828" y="1308" type="curve" smooth="yes"/>
      <point x="482" y="1308"/>
      <point x="156" y="1148"/>
      <point x="150" y="724" type="curve" smooth="yes"/>
      <point x="146" y="438"/>
      <point x="378" y="220"/>
      <point x="540" y="170" type="curve"/>
      <point x="728" y="0" type="line"/>
    </contour>
    <contour>
      <point x="140" y="0" type="line"/>
      <point x="728" y="0" type="line"/>
      <point x="536" y="240" type="line"/>
      <point x="140" y="240" type="line"/>
    </contour>
    <contour>
      <point x="1508" y="0" type="line"/>
      <point x="1508" y="240" type="line"/>
      <point x="1048" y="240" type="line"/>
      <point x="934" y="0" type="line"/>
    </contour>
  </outline>
</glyph>
<glyph name="one.dnom" format="2">
  <advance width="856"/>
  <outline>
    <contour>
      <point x="356" y="0" type="line"/>
      <point x="654" y="0" type="line"/>
      <point x="656" y="1088" type="line"/>
      <point x="478" y="1134" type="line"/>
      <point x="478" y="1136" type="line"/>
      <point x="402" y="1058"/>
      <point x="248" y="942"/>
      <point x="60" y="906" type="curve"/>
      <point x="100" y="742" type="line"/>
      <point x="168" y="744"/>
      <point x="290" y="766"/>
      <point x="356" y="802" type="curve"/>
    </contour>
  </outline>
</glyph>
<glyph name="one.sc" format="2">
  <advance width="986"/>
  <outline>
    <contour>
      <point x="378" y="0" type="line"/>
      <point x="730" y="0" type="line"/>
      <point x="732" y="1292" type="line"/>
      <point x="562" y="1306" type="line"/>
      <point x="478" y="1240"/>
      <point x="250" y="1148"/>
      <point x="134" y="1126" type="curve"/>
      <point x="162" y="898" type="line"/>
      <point x="234" y="908"/>
      <point x="314" y="920"/>
      <point x="378" y="942" type="curve"/>
    </contour>
  </outline>
</glyph>
<glyph name="one.tosf" format="2">
  <advance width="1354"/>
  <outline>
    <contour>
      <point x="144" y="216" type="line" name="hr00"/>
      <point x="144" y="0" type="line"/>
      <point x="1258" y="0" type="line"/>
      <point x="1258" y="216" type="line"/>
      <point x="924" y="216" type="line"/>
      <point x="926" y="1344" type="line"/>
      <point x="736" y="1390" type="line"/>
      <point x="736" y="1390" type="line"/>
      <point x="652" y="1306"/>
      <point x="376" y="1160"/>
      <point x="128" y="1116" type="curve"/>
      <point x="170" y="906" type="line"/>
      <point x="300" y="914"/>
      <point x="470" y="948"/>
      <point x="552" y="986" type="curve"/>
      <point x="552" y="216" type="line"/>
    </contour>
  </outline>
</glyph>
<glyph name="q.sc" format="2">
  <advance width="1516"/>
  <anchor x="758" y="0" name="bottom"/>
  <anchor x="760" y="-144" name="btm"/>
  <anchor x="760" y="1444" name="top"/>
  <outline>
    <contour>
      <point x="1222" y="-320" type="curve" smooth="yes"/>
      <point x="1314" y="-320"/>
      <point x="1420" y="-296"/>
      <point x="1456" y="-282" type="curve"/>
      <point x="1456" y="-32" type="line"/>
      <point x="1418" y="-44"/>
      <point x="1320" y="-60"/>
      <point x="1268" y="-60" type="curve" smooth="yes"/>
      <point x="1088" y="-60"/>
      <point x="950" y="-56"/>
      <point x="922" y="42" type="curve"/>
      <point x="824" y="42" type="line"/>
      <point x="644" y="0" type="line"/>
      <point x="706" y="-230"/>
      <point x="894" y="-320"/>
    </contour>
    <contour>
      <point x="754" y="-14" type="curve" smooth="yes"/>
      <point x="1144" y="-8"/>
      <point x="1414" y="180"/>
      <point x="1424" y="650" type="curve" smooth="yes"/>
      <point x="1432" y="1062"/>
      <point x="1196" y="1322"/>
      <point x="764" y="1306" type="curve" smooth="yes"/>
      <point x="380" y="1292"/>
      <point x="98" y="1114"/>
      <point x="90" y="652" type="curve" smooth="yes"/>
      <point x="82" y="224"/>
      <point x="338" y="-22"/>
    </contour>
    <contour>
      <point x="760" y="258" type="curve" smooth="yes"/>
      <point x="570" y="258"/>
      <point x="478" y="408"/>
      <point x="478" y="644" type="curve" smooth="yes"/>
      <point x="478" y="946"/>
      <point x="610" y="1026"/>
      <point x="774" y="1026" type="curve" smooth="yes"/>
      <point x="954" y="1026"/>
      <point x="1036" y="888"/>
      <point x="1036" y="658" type="curve" smooth="yes"/>
      <point x="1036" y="358"/>
      <point x="932" y="258"/>
    </contour>
  </outline>
</glyph>
<glyph name="questiondown.case" format="2">
  <advance width="1108"/>
  <outline>
    <contour>
      <point x="710" y="1254" type="curve"/>
      <point x="434" y="1254" type="line"/>
      <point x="452" y="1180"/>
      <point x="472" y="1126"/>
      <point x="468" y="1068" type="curve" smooth="yes"/>
      <point x="456" y="764"/>
      <point x="44" y="782"/>
      <point x="44" y="392" type="curve" smooth="yes"/>
      <point x="40" y="140"/>
      <point x="224" y="-26"/>
      <point x="608" y="-26" type="curve" smooth="yes"/>
      <point x="732" y="-26"/>
      <point x="880" y="2"/>
      <point x="928" y="34" type="curve"/>
      <point x="928" y="296" type="line"/>
      <point x="886" y="278"/>
      <point x="806" y="248"/>
      <point x="698" y="248" type="curve" smooth="yes"/>
      <point x="502" y="248"/>
      <point x="432" y="318"/>
      <point x="432" y="430" type="curve" smooth="yes"/>
      <point x="432" y="672"/>
      <point x="784" y="700"/>
      <point x="782" y="1008" type="curve" smooth="yes"/>
      <point x="782" y="1130"/>
      <point x="742" y="1200"/>
    </contour>
    <contour>
      <point x="560" y="1798" type="curve" smooth="yes"/>
      <point x="442" y="1798"/>
      <point x="350" y="1698"/>
      <point x="350" y="1586" type="curve" smooth="yes"/>
      <point x="350" y="1474"/>
      <point x="426" y="1392"/>
      <point x="542" y="1392" type="curve" smooth="yes"/>
      <point x="660" y="1392"/>
      <point x="756" y="1490"/>
      <point x="754" y="1602" type="curve" smooth="yes"/>
      <point x="754" y="1714"/>
      <point x="674" y="1798"/>
    </contour>
  </outline>
</glyph>
<glyph name="schwa.sc" format="2">
  <advance width="1406"/>
  <anchor x="712" y="0" name="bottom"/>
  <anchor x="686" y="-144" name="btm"/>
  <anchor x="678" y="1446" name="top"/>
  <outline>
    <contour>
      <point x="658" y="-14" type="curve" smooth="yes"/>
      <point x="1068" y="-14"/>
      <point x="1322" y="280"/>
      <point x="1322" y="648" type="curve" smooth="yes"/>
      <point x="1322" y="1134"/>
      <point x="1008" y="1304"/>
      <point x="686" y="1308" type="curve" smooth="yes"/>
      <point x="428" y="1312"/>
      <point x="262" y="1230"/>
      <point x="160" y="1180" type="curve"/>
      <point x="232" y="926" type="line"/>
      <point x="328" y="970"/>
      <point x="432" y="1012"/>
      <point x="638" y="1012" type="curve" smooth="yes"/>
      <point x="846" y="1012"/>
      <point x="958" y="880"/>
      <point x="958" y="662" type="curve" smooth="yes"/>
      <point x="958" y="432"/>
      <point x="850" y="266"/>
      <point x="678" y="266" type="curve" smooth="yes"/>
      <point x="512" y="266"/>
      <point x="430" y="346"/>
      <point x="442" y="544" type="curve"/>
      <point x="1058" y="544" type="line"/>
      <point x="1082" y="774" type="line"/>
      <point x="98" y="774" type="line"/>
      <point x="90" y="720"/>
      <point x="84" y="688"/>
      <point x="84" y="592" type="curve" smooth="yes"/>
      <point x="84" y="152"/>
      <point x="368" y="-14"/>
    </contour>
  </outline>
</glyph>
<glyph name="seven.dnom" format="2">
  <advance width="984"/>
  <outline>
    <contour>
      <point x="190" y="0" type="curve"/>
      <point x="516" y="0" type="line"/>
      <point x="914" y="1006" type="line"/>
      <point x="844" y="1120" type="line"/>
      <point x="70" y="1120" type="line"/>
      <point x="70" y="860" type="line"/>
      <point x="596" y="858" type="line"/>
      <point x="522" y="702"/>
      <point x="332" y="284"/>
    </contour>
  </outline>
</glyph>
<glyph name="six.tf" format="2">
  <advance width="1360"/>
  <outline>
    <contour>
      <point x="104" y="608" type="curve" smooth="yes"/>
      <point x="104" y="246"/>
      <point x="344" y="-16"/>
      <point x="668" y="-16" type="curve" smooth="yes"/>
      <point x="1066" y="-16"/>
      <point x="1256" y="246"/>
      <point x="1256" y="554" type="curve" smooth="yes"/>
      <point x="1256" y="812"/>
      <point x="1090" y="1004"/>
      <point x="856" y="1004" type="curve" smooth="yes"/>
      <point x="694" y="1004"/>
      <point x="586" y="930"/>
      <point x="558" y="890" type="curve"/>
      <point x="622" y="702" type="line"/>
      <point x="648" y="714"/>
      <point x="680" y="734"/>
      <point x="742" y="734" type="curve" smooth="yes"/>
      <point x="828" y="734"/>
      <point x="900" y="664"/>
      <point x="900" y="486" type="curve" smooth="yes"/>
      <point x="900" y="328"/>
      <point x="832" y="232"/>
      <point x="698" y="232" type="curve" smooth="yes"/>
      <point x="546" y="232"/>
      <point x="486" y="416"/>
      <point x="486" y="672" type="curve" smooth="yes"/>
      <point x="486" y="966"/>
      <point x="650" y="1246"/>
      <point x="1006" y="1338" type="curve"/>
      <point x="924" y="1552" type="line"/>
      <point x="620" y="1500"/>
      <point x="104" y="1202"/>
    </contour>
  </outline>
</glyph>
<glyph name="slash.case" format="2">
  <advance width="970"/>
  <outline>
    <contour>
      <point x="72" y="-354" type="line"/>
      <point x="356" y="-354" type="line"/>
      <point x="898" y="1562" type="line"/>
      <point x="614" y="1562" type="line"/>
    </contour>
  </outline>
</glyph>
<glyph name="t.sc" format="2">
  <advance width="1204"/>
  <anchor x="602" y="0" name="bottom"/>
  <anchor x="600" y="-144" name="btm"/>
  <anchor x="602" y="646" name="center"/>
  <anchor x="606" y="1800" name="top"/>
  <outline>
    <contour>
      <point x="412" y="0" type="line"/>
      <point x="792" y="0" type="line"/>
      <point x="792" y="1004" type="line"/>
      <point x="1164" y="1004" type="line"/>
      <point x="1164" y="1292" type="line"/>
      <point x="40" y="1292" type="line"/>
      <point x="40" y="1004" type="line"/>
      <point x="412" y="1004" type="line"/>
    </contour>
  </outline>
</glyph>
<glyph name="tbar.sc" format="2">
  <advance width="1180"/>
  <anchor x="588" y="-144" name="btm"/>
  <anchor x="588" y="1444" name="top"/>
  <outline>
    <contour>
      <point x="162" y="442" type="line"/>
      <point x="1044" y="442" type="line"/>
      <point x="1044" y="676" type="line"/>
      <point x="162" y="676" type="line"/>
    </contour>
    <contour>
      <point x="400" y="0" type="line"/>
      <point x="780" y="0" type="line"/>
      <point x="780" y="1004" type="line"/>
      <point x="1152" y="1004" type="line"/>
      <point x="1152" y="1292" type="line"/>
      <point x="28" y="1292" type="line"/>
      <point x="28" y="1004" type="line"/>
      <point x="400" y="1004" type="line"/>
    </contour>
  </outline>
</glyph>
<glyph name="three.dnom" format="2">
  <advance width="914"/>
  <outline>
    <contour>
      <point x="90" y="30" type="line"/>
      <point x="112" y="20"/>
      <point x="188" y="-18"/>
      <point x="340" y="-18" type="curve" smooth="yes"/>
      <point x="650" y="-18"/>
      <point x="858" y="140"/>
      <point x="858" y="336" type="curve" smooth="yes"/>
      <point x="858" y="446"/>
      <point x="792" y="586"/>
      <point x="566" y="584" type="curve"/>
      <point x="566" y="564" type="line"/>
      <point x="694" y="614"/>
      <point x="800" y="710"/>
      <point x="800" y="860" type="curve" smooth="yes"/>
      <point x="800" y="1014"/>
      <point x="696" y="1130"/>
      <point x="402" y="1130" type="curve" smooth="yes"/>
      <point x="254" y="1130"/>
      <point x="90" y="1068"/>
      <point x="56" y="1022" type="curve"/>
      <point x="130" y="838" type="line"/>
      <point x="174" y="868"/>
      <point x="240" y="910"/>
      <point x="352" y="910" type="curve" smooth="yes"/>
      <point x="430" y="910"/>
      <point x="506" y="880"/>
      <point x="504" y="816" type="curve" smooth="yes"/>
      <point x="502" y="760"/>
      <point x="464" y="730"/>
      <point x="414" y="694" type="curve" smooth="yes"/>
      <point x="376" y="666"/>
      <point x="280" y="642"/>
      <point x="210" y="626" type="curve"/>
      <point x="242" y="454" type="line"/>
      <point x="366" y="484" type="line"/>
      <point x="520" y="486"/>
      <point x="552" y="412"/>
      <point x="552" y="350" type="curve" smooth="yes"/>
      <point x="552" y="246"/>
      <point x="408" y="190"/>
      <point x="248" y="190" type="curve" smooth="yes"/>
      <point x="196" y="190"/>
      <point x="140" y="202"/>
      <point x="90" y="212" type="curve"/>
    </contour>
  </outline>
</glyph>
<glyph name="tildecomb.case" format="2">
  <anchor x="0" y="1660" name="_top"/>
  <anchor x="0" y="2184" name="top"/>
  <outline>
    <contour>
      <point x="162" y="1686" type="curve" smooth="yes"/>
      <point x="288" y="1686"/>
      <point x="404" y="1796"/>
      <point x="404" y="1964" type="curve"/>
      <point x="272" y="2010" type="line"/>
      <point x="240" y="1924"/>
      <point x="198" y="1902"/>
      <point x="148" y="1902" type="curve" smooth="yes"/>
      <point x="58" y="1902"/>
      <point x="-8" y="2040"/>
      <point x="-158" y="2040" type="curve" smooth="yes"/>
      <point x="-284" y="2040"/>
      <point x="-404" y="1930"/>
      <point x="-404" y="1762" type="curve"/>
      <point x="-272" y="1716" type="line"/>
      <point x="-240" y="1796"/>
      <point x="-204" y="1824"/>
      <point x="-148" y="1824" type="curve" smooth="yes"/>
      <point x="-54" y="1824"/>
      <point x="12" y="1686"/>
    </contour>
  </outline>
</glyph>
<glyph name="two.osf" format="2">
  <advance width="1384"/>
  <outline>
    <contour>
      <point x="186" y="0" type="line"/>
      <point x="1232" y="0" type="line"/>
      <point x="1232" y="306" type="line"/>
      <point x="524" y="258" type="line"/>
      <point x="518" y="174" type="line"/>
      <point x="908" y="376"/>
      <point x="1162" y="580"/>
      <point x="1162" y="868" type="curve" smooth="yes"/>
      <point x="1162" y="1066"/>
      <point x="1040" y="1262"/>
      <point x="666" y="1262" type="curve" smooth="yes"/>
      <point x="422" y="1262"/>
      <point x="224" y="1146"/>
      <point x="144" y="1062" type="curve"/>
      <point x="266" y="854" type="line"/>
      <point x="334" y="918"/>
      <point x="460" y="976"/>
      <point x="584" y="976" type="curve" smooth="yes"/>
      <point x="724" y="976"/>
      <point x="766" y="890"/>
      <point x="766" y="792" type="curve" smooth="yes"/>
      <point x="766" y="546"/>
      <point x="352" y="272"/>
      <point x="136" y="166" type="curve"/>
    </contour>
  </outline>
</glyph>
<glyph name="x.sc" format="2">
  <advance width="1320"/>
  <anchor x="658" y="0" name="bottom"/>
  <anchor x="646" y="-144" name="btm"/>
  <anchor x="646" y="1444" name="top"/>
  <outline>
    <contour>
      <point x="18" y="0" type="line"/>
      <point x="404" y="0" type="line"/>
      <point x="592" y="314" type="line"/>
      <point x="684" y="490" type="line"/>
      <point x="608" y="490" type="line"/>
      <point x="702" y="314" type="line"/>
      <point x="896" y="0" type="line"/>
      <point x="1302" y="0" type="line"/>
      <point x="856" y="670" type="line"/>
      <point x="846" y="588" type="line"/>
      <point x="1288" y="1292" type="line"/>
      <point x="904" y="1292" type="line"/>
      <point x="722" y="976" type="line"/>
      <point x="644" y="846" type="line"/>
      <point x="706" y="846" type="line"/>
      <point x="624" y="976" type="line"/>
      <point x="432" y="1294" type="line"/>
      <point x="30" y="1292" type="line"/>
      <point x="462" y="622" type="line"/>
      <point x="470" y="718" type="line"/>
    </contour>
  </outline>
</glyph>
<glyph name="z.sc" format="2">
  <advance width="1228"/>
  <anchor x="626" y="0" name="bottom"/>
  <anchor x="608" y="-144" name="btm"/>
  <anchor x="626" y="646" name="center"/>
  <anchor x="618" y="1800" name="top"/>
  <outline>
    <contour>
      <point x="82" y="0" type="line"/>
      <point x="1180" y="0" type="line"/>
      <point x="1180" y="278" type="line"/>
      <point x="556" y="278" type="line"/>
      <point x="628" y="372" type="line"/>
      <point x="1184" y="1204" type="line"/>
      <point x="1146" y="1292" type="line"/>
      <point x="122" y="1292" type="line"/>
      <point x="122" y="1024" type="line"/>
      <point x="676" y="1024" type="line"/>
      <point x="606" y="932" type="line"/>
      <point x="44" y="92" type="line"/>
    </contour>
  </outline>
</glyph>
<glyph name="zero.osf" format="2">
  <advance width="1404"/>
  <outline>
    <contour>
      <point x="694" y="-16" type="curve" smooth="yes"/>
      <point x="1058" y="-16"/>
      <point x="1290" y="234"/>
      <point x="1292" y="612" type="curve" smooth="yes"/>
      <point x="1296" y="952"/>
      <point x="1162" y="1242"/>
      <point x="718" y="1242" type="curve" smooth="yes"/>
      <point x="360" y="1242"/>
      <point x="116" y="1006"/>
      <point x="112" y="626" type="curve" smooth="yes"/>
      <point x="108" y="292"/>
      <point x="256" y="-16"/>
    </contour>
    <contour>
      <point x="702" y="242" type="curve" smooth="yes"/>
      <point x="544" y="246"/>
      <point x="474" y="430"/>
      <point x="474" y="636" type="curve" smooth="yes"/>
      <point x="474" y="860"/>
      <point x="554" y="986"/>
      <point x="706" y="984" type="curve" smooth="yes"/>
      <point x="860" y="984"/>
      <point x="928" y="814"/>
      <point x="928" y="604" type="curve" smooth="yes"/>
      <point x="928" y="368"/>
      <point x="852" y="240"/>
    </contour>
  </outline>
</glyph>
<glyph name="zero.osf.zero" format="2">
  <advance width="1404"/>
  <outline>
    <contour>
      <point x="458" y="128" type="line" name="hr00"/>
      <point x="576" y="106" type="line"/>
      <point x="934" y="1048" type="line"/>
      <point x="818" y="1074" type="line"/>
    </contour>
    <component base="zero.osf"/>
  </outline>
</glyph>
<glyph name="zero.tf" format="2">
  <advance width="1360"/>
  <outline>
    <contour>
      <point x="670" y="-16" type="curve" smooth="yes" name="hr00"/>
      <point x="1048" y="-16"/>
      <point x="1288" y="280"/>
      <point x="1292" y="750" type="curve" smooth="yes"/>
      <point x="1294" y="1212"/>
      <point x="1064" y="1502"/>
      <point x="694" y="1502" type="curve" smooth="yes"/>
      <point x="316" y="1502"/>
      <point x="74" y="1218"/>
      <point x="68" y="768" type="curve" smooth="yes"/>
      <point x="64" y="286"/>
      <point x="296" y="-16"/>
    </contour>
    <contour>
      <point x="678" y="216" type="curve" smooth="yes"/>
      <point x="524" y="216"/>
      <point x="448" y="400"/>
      <point x="448" y="778" type="curve" smooth="yes"/>
      <point x="448" y="1108"/>
      <point x="524" y="1270"/>
      <point x="682" y="1270" type="curve" smooth="yes"/>
      <point x="836" y="1270"/>
      <point x="912" y="1096"/>
      <point x="912" y="742" type="curve" smooth="yes"/>
      <point x="912" y="388"/>
      <point x="836" y="216"/>
    </contour>
  </outline>
</glyph>
<glyph name="zero.tosf.zero" format="2">
  <advance width="1354"/>
  <outline>
    <contour>
      <point x="438" y="128" type="line" name="hr00"/>
      <point x="556" y="106" type="line"/>
      <point x="914" y="1048" type="line"/>
      <point x="798" y="1074" type="line"/>
    </contour>
    <component base="zero.tosf"/>
  </outline>
</glyph>
